<?xml version="1.0" encoding="UTF-8"?>
<svg id="Capa_2" data-name="Capa 2" xmlns="http://www.w3.org/2000/svg" viewBox="0 0 68.35 114.39">
  <defs>
    <style>
      .cls-1 {
        fill: #8c15ff;
      }
    </style>
  </defs>
  <g id="Capa_1-2" data-name="Capa 1">
    <g>
      <path class="cls-1" d="m4.9,9.79C2.2,9.79,0,7.6,0,4.9S2.2,0,4.9,0s4.9,2.2,4.9,4.9-2.2,4.9-4.9,4.9Zm0-8.29c-1.87,0-3.4,1.52-3.4,3.4s1.52,3.4,3.4,3.4,3.4-1.52,3.4-3.4-1.52-3.4-3.4-3.4Z"/>
      <path class="cls-1" d="m4.9,22.87c-2.7,0-4.9-2.2-4.9-4.9s2.2-4.9,4.9-4.9,4.9,2.2,4.9,4.9-2.2,4.9-4.9,4.9Zm0-8.29c-1.87,0-3.4,1.52-3.4,3.4s1.52,3.4,3.4,3.4,3.4-1.52,3.4-3.4-1.52-3.4-3.4-3.4Z"/>
      <path class="cls-1" d="m4.9,35.94c-2.7,0-4.9-2.2-4.9-4.9s2.2-4.9,4.9-4.9,4.9,2.2,4.9,4.9-2.2,4.9-4.9,4.9Zm0-8.29c-1.87,0-3.4,1.52-3.4,3.4s1.52,3.4,3.4,3.4,3.4-1.52,3.4-3.4-1.52-3.4-3.4-3.4Z"/>
      <path class="cls-1" d="m4.9,49.02c-2.7,0-4.9-2.2-4.9-4.9s2.2-4.9,4.9-4.9,4.9,2.2,4.9,4.9-2.2,4.9-4.9,4.9Zm0-8.29c-1.87,0-3.4,1.52-3.4,3.4s1.52,3.4,3.4,3.4,3.4-1.52,3.4-3.4-1.52-3.4-3.4-3.4Z"/>
      <path class="cls-1" d="m4.9,62.09c-2.7,0-4.9-2.2-4.9-4.9s2.2-4.9,4.9-4.9,4.9,2.2,4.9,4.9-2.2,4.9-4.9,4.9Zm0-8.29c-1.87,0-3.4,1.52-3.4,3.4s1.52,3.4,3.4,3.4,3.4-1.52,3.4-3.4-1.52-3.4-3.4-3.4Z"/>
      <path class="cls-1" d="m4.9,75.17c-2.7,0-4.9-2.2-4.9-4.9s2.2-4.9,4.9-4.9,4.9,2.2,4.9,4.9-2.2,4.9-4.9,4.9Zm0-8.29c-1.87,0-3.4,1.52-3.4,3.4s1.52,3.4,3.4,3.4,3.4-1.52,3.4-3.4-1.52-3.4-3.4-3.4Z"/>
      <path class="cls-1" d="m4.9,88.24c-2.7,0-4.9-2.2-4.9-4.9s2.2-4.9,4.9-4.9,4.9,2.2,4.9,4.9-2.2,4.9-4.9,4.9Zm0-8.29c-1.87,0-3.4,1.52-3.4,3.4s1.52,3.4,3.4,3.4,3.4-1.52,3.4-3.4-1.52-3.4-3.4-3.4Z"/>
      <path class="cls-1" d="m4.9,101.31c-2.7,0-4.9-2.2-4.9-4.9s2.2-4.9,4.9-4.9,4.9,2.2,4.9,4.9-2.2,4.9-4.9,4.9Zm0-8.29c-1.87,0-3.4,1.52-3.4,3.4s1.52,3.4,3.4,3.4,3.4-1.52,3.4-3.4-1.52-3.4-3.4-3.4Z"/>
      <path class="cls-1" d="m4.9,114.39c-2.7,0-4.9-2.2-4.9-4.9s2.2-4.9,4.9-4.9,4.9,2.2,4.9,4.9-2.2,4.9-4.9,4.9Zm0-8.3c-1.87,0-3.4,1.52-3.4,3.4s1.52,3.4,3.4,3.4,3.4-1.52,3.4-3.4-1.52-3.4-3.4-3.4Z"/>
      <path class="cls-1" d="m19.54,9.79c-2.7,0-4.9-2.2-4.9-4.9S16.84,0,19.54,0s4.9,2.2,4.9,4.9-2.2,4.9-4.9,4.9Zm0-8.29c-1.87,0-3.4,1.52-3.4,3.4s1.52,3.4,3.4,3.4,3.4-1.52,3.4-3.4-1.52-3.4-3.4-3.4Z"/>
      <path class="cls-1" d="m19.54,22.87c-2.7,0-4.9-2.2-4.9-4.9s2.2-4.9,4.9-4.9,4.9,2.2,4.9,4.9-2.2,4.9-4.9,4.9Zm0-8.29c-1.87,0-3.4,1.52-3.4,3.4s1.52,3.4,3.4,3.4,3.4-1.52,3.4-3.4-1.52-3.4-3.4-3.4Z"/>
      <path class="cls-1" d="m19.54,35.94c-2.7,0-4.9-2.2-4.9-4.9s2.2-4.9,4.9-4.9,4.9,2.2,4.9,4.9-2.2,4.9-4.9,4.9Zm0-8.29c-1.87,0-3.4,1.52-3.4,3.4s1.52,3.4,3.4,3.4,3.4-1.52,3.4-3.4-1.52-3.4-3.4-3.4Z"/>
      <path class="cls-1" d="m19.54,49.02c-2.7,0-4.9-2.2-4.9-4.9s2.2-4.9,4.9-4.9,4.9,2.2,4.9,4.9-2.2,4.9-4.9,4.9Zm0-8.29c-1.87,0-3.4,1.52-3.4,3.4s1.52,3.4,3.4,3.4,3.4-1.52,3.4-3.4-1.52-3.4-3.4-3.4Z"/>
      <path class="cls-1" d="m19.54,62.09c-2.7,0-4.9-2.2-4.9-4.9s2.2-4.9,4.9-4.9,4.9,2.2,4.9,4.9-2.2,4.9-4.9,4.9Zm0-8.29c-1.87,0-3.4,1.52-3.4,3.4s1.52,3.4,3.4,3.4,3.4-1.52,3.4-3.4-1.52-3.4-3.4-3.4Z"/>
      <path class="cls-1" d="m19.54,75.17c-2.7,0-4.9-2.2-4.9-4.9s2.2-4.9,4.9-4.9,4.9,2.2,4.9,4.9-2.2,4.9-4.9,4.9Zm0-8.29c-1.87,0-3.4,1.52-3.4,3.4s1.52,3.4,3.4,3.4,3.4-1.52,3.4-3.4-1.52-3.4-3.4-3.4Z"/>
      <path class="cls-1" d="m19.54,88.24c-2.7,0-4.9-2.2-4.9-4.9s2.2-4.9,4.9-4.9,4.9,2.2,4.9,4.9-2.2,4.9-4.9,4.9Zm0-8.29c-1.87,0-3.4,1.52-3.4,3.4s1.52,3.4,3.4,3.4,3.4-1.52,3.4-3.4-1.52-3.4-3.4-3.4Z"/>
      <path class="cls-1" d="m19.54,101.31c-2.7,0-4.9-2.2-4.9-4.9s2.2-4.9,4.9-4.9,4.9,2.2,4.9,4.9-2.2,4.9-4.9,4.9Zm0-8.29c-1.87,0-3.4,1.52-3.4,3.4s1.52,3.4,3.4,3.4,3.4-1.52,3.4-3.4-1.52-3.4-3.4-3.4Z"/>
      <path class="cls-1" d="m19.54,114.39c-2.7,0-4.9-2.2-4.9-4.9s2.2-4.9,4.9-4.9,4.9,2.2,4.9,4.9-2.2,4.9-4.9,4.9Zm0-8.3c-1.87,0-3.4,1.52-3.4,3.4s1.52,3.4,3.4,3.4,3.4-1.52,3.4-3.4-1.52-3.4-3.4-3.4Z"/>
      <path class="cls-1" d="m34.17,9.79c-2.7,0-4.9-2.2-4.9-4.9s2.2-4.9,4.9-4.9,4.9,2.2,4.9,4.9-2.2,4.9-4.9,4.9Zm0-8.29c-1.87,0-3.4,1.52-3.4,3.4s1.52,3.4,3.4,3.4,3.4-1.52,3.4-3.4-1.52-3.4-3.4-3.4Z"/>
      <path class="cls-1" d="m34.17,22.87c-2.7,0-4.9-2.2-4.9-4.9s2.2-4.9,4.9-4.9,4.9,2.2,4.9,4.9-2.2,4.9-4.9,4.9Zm0-8.29c-1.87,0-3.4,1.52-3.4,3.4s1.52,3.4,3.4,3.4,3.4-1.52,3.4-3.4-1.52-3.4-3.4-3.4Z"/>
      <path class="cls-1" d="m34.17,35.94c-2.7,0-4.9-2.2-4.9-4.9s2.2-4.9,4.9-4.9,4.9,2.2,4.9,4.9-2.2,4.9-4.9,4.9Zm0-8.29c-1.87,0-3.4,1.52-3.4,3.4s1.52,3.4,3.4,3.4,3.4-1.52,3.4-3.4-1.52-3.4-3.4-3.4Z"/>
      <path class="cls-1" d="m34.17,49.02c-2.7,0-4.9-2.2-4.9-4.9s2.2-4.9,4.9-4.9,4.9,2.2,4.9,4.9-2.2,4.9-4.9,4.9Zm0-8.29c-1.87,0-3.4,1.52-3.4,3.4s1.52,3.4,3.4,3.4,3.4-1.52,3.4-3.4-1.52-3.4-3.4-3.4Z"/>
      <path class="cls-1" d="m34.17,62.09c-2.7,0-4.9-2.2-4.9-4.9s2.2-4.9,4.9-4.9,4.9,2.2,4.9,4.9-2.2,4.9-4.9,4.9Zm0-8.29c-1.87,0-3.4,1.52-3.4,3.4s1.52,3.4,3.4,3.4,3.4-1.52,3.4-3.4-1.52-3.4-3.4-3.4Z"/>
      <path class="cls-1" d="m34.17,75.17c-2.7,0-4.9-2.2-4.9-4.9s2.2-4.9,4.9-4.9,4.9,2.2,4.9,4.9-2.2,4.9-4.9,4.9Zm0-8.29c-1.87,0-3.4,1.52-3.4,3.4s1.52,3.4,3.4,3.4,3.4-1.52,3.4-3.4-1.52-3.4-3.4-3.4Z"/>
      <path class="cls-1" d="m34.17,88.24c-2.7,0-4.9-2.2-4.9-4.9s2.2-4.9,4.9-4.9,4.9,2.2,4.9,4.9-2.2,4.9-4.9,4.9Zm0-8.29c-1.87,0-3.4,1.52-3.4,3.4s1.52,3.4,3.4,3.4,3.4-1.52,3.4-3.4-1.52-3.4-3.4-3.4Z"/>
      <path class="cls-1" d="m34.17,101.31c-2.7,0-4.9-2.2-4.9-4.9s2.2-4.9,4.9-4.9,4.9,2.2,4.9,4.9-2.2,4.9-4.9,4.9Zm0-8.29c-1.87,0-3.4,1.52-3.4,3.4s1.52,3.4,3.4,3.4,3.4-1.52,3.4-3.4-1.52-3.4-3.4-3.4Z"/>
      <path class="cls-1" d="m34.17,114.39c-2.7,0-4.9-2.2-4.9-4.9s2.2-4.9,4.9-4.9,4.9,2.2,4.9,4.9-2.2,4.9-4.9,4.9Zm0-8.3c-1.87,0-3.4,1.52-3.4,3.4s1.52,3.4,3.4,3.4,3.4-1.52,3.4-3.4-1.52-3.4-3.4-3.4Z"/>
      <path class="cls-1" d="m48.81,9.79c-2.7,0-4.9-2.2-4.9-4.9s2.2-4.9,4.9-4.9,4.9,2.2,4.9,4.9-2.2,4.9-4.9,4.9Zm0-8.29c-1.87,0-3.4,1.52-3.4,3.4s1.52,3.4,3.4,3.4,3.4-1.52,3.4-3.4-1.52-3.4-3.4-3.4Z"/>
      <path class="cls-1" d="m48.81,22.87c-2.7,0-4.9-2.2-4.9-4.9s2.2-4.9,4.9-4.9,4.9,2.2,4.9,4.9-2.2,4.9-4.9,4.9Zm0-8.29c-1.87,0-3.4,1.52-3.4,3.4s1.52,3.4,3.4,3.4,3.4-1.52,3.4-3.4-1.52-3.4-3.4-3.4Z"/>
      <path class="cls-1" d="m48.81,35.94c-2.7,0-4.9-2.2-4.9-4.9s2.2-4.9,4.9-4.9,4.9,2.2,4.9,4.9-2.2,4.9-4.9,4.9Zm0-8.29c-1.87,0-3.4,1.52-3.4,3.4s1.52,3.4,3.4,3.4,3.4-1.52,3.4-3.4-1.52-3.4-3.4-3.4Z"/>
      <path class="cls-1" d="m48.81,49.02c-2.7,0-4.9-2.2-4.9-4.9s2.2-4.9,4.9-4.9,4.9,2.2,4.9,4.9-2.2,4.9-4.9,4.9Zm0-8.29c-1.87,0-3.4,1.52-3.4,3.4s1.52,3.4,3.4,3.4,3.4-1.52,3.4-3.4-1.52-3.4-3.4-3.4Z"/>
      <path class="cls-1" d="m48.81,62.09c-2.7,0-4.9-2.2-4.9-4.9s2.2-4.9,4.9-4.9,4.9,2.2,4.9,4.9-2.2,4.9-4.9,4.9Zm0-8.29c-1.87,0-3.4,1.52-3.4,3.4s1.52,3.4,3.4,3.4,3.4-1.52,3.4-3.4-1.52-3.4-3.4-3.4Z"/>
      <path class="cls-1" d="m48.81,75.17c-2.7,0-4.9-2.2-4.9-4.9s2.2-4.9,4.9-4.9,4.9,2.2,4.9,4.9-2.2,4.9-4.9,4.9Zm0-8.29c-1.87,0-3.4,1.52-3.4,3.4s1.52,3.4,3.4,3.4,3.4-1.52,3.4-3.4-1.52-3.4-3.4-3.4Z"/>
      <path class="cls-1" d="m48.81,88.24c-2.7,0-4.9-2.2-4.9-4.9s2.2-4.9,4.9-4.9,4.9,2.2,4.9,4.9-2.2,4.9-4.9,4.9Zm0-8.29c-1.87,0-3.4,1.52-3.4,3.4s1.52,3.4,3.4,3.4,3.4-1.52,3.4-3.4-1.52-3.4-3.4-3.4Z"/>
      <path class="cls-1" d="m48.81,101.31c-2.7,0-4.9-2.2-4.9-4.9s2.2-4.9,4.9-4.9,4.9,2.2,4.9,4.9-2.2,4.9-4.9,4.9Zm0-8.29c-1.87,0-3.4,1.52-3.4,3.4s1.52,3.4,3.4,3.4,3.4-1.52,3.4-3.4-1.52-3.4-3.4-3.4Z"/>
      <path class="cls-1" d="m48.81,114.39c-2.7,0-4.9-2.2-4.9-4.9s2.2-4.9,4.9-4.9,4.9,2.2,4.9,4.9-2.2,4.9-4.9,4.9Zm0-8.3c-1.87,0-3.4,1.52-3.4,3.4s1.52,3.4,3.4,3.4,3.4-1.52,3.4-3.4-1.52-3.4-3.4-3.4Z"/>
      <path class="cls-1" d="m63.45,9.79c-2.7,0-4.9-2.2-4.9-4.9s2.2-4.9,4.9-4.9,4.9,2.2,4.9,4.9-2.2,4.9-4.9,4.9Zm0-8.29c-1.87,0-3.4,1.52-3.4,3.4s1.52,3.4,3.4,3.4,3.4-1.52,3.4-3.4-1.52-3.4-3.4-3.4Z"/>
      <path class="cls-1" d="m63.45,22.87c-2.7,0-4.9-2.2-4.9-4.9s2.2-4.9,4.9-4.9,4.9,2.2,4.9,4.9-2.2,4.9-4.9,4.9Zm0-8.29c-1.87,0-3.4,1.52-3.4,3.4s1.52,3.4,3.4,3.4,3.4-1.52,3.4-3.4-1.52-3.4-3.4-3.4Z"/>
      <path class="cls-1" d="m63.45,35.94c-2.7,0-4.9-2.2-4.9-4.9s2.2-4.9,4.9-4.9,4.9,2.2,4.9,4.9-2.2,4.9-4.9,4.9Zm0-8.29c-1.87,0-3.4,1.52-3.4,3.4s1.52,3.4,3.4,3.4,3.4-1.52,3.4-3.4-1.52-3.4-3.4-3.4Z"/>
      <path class="cls-1" d="m63.45,49.02c-2.7,0-4.9-2.2-4.9-4.9s2.2-4.9,4.9-4.9,4.9,2.2,4.9,4.9-2.2,4.9-4.9,4.9Zm0-8.29c-1.87,0-3.4,1.52-3.4,3.4s1.52,3.4,3.4,3.4,3.4-1.52,3.4-3.4-1.52-3.4-3.4-3.4Z"/>
      <path class="cls-1" d="m63.45,62.09c-2.7,0-4.9-2.2-4.9-4.9s2.2-4.9,4.9-4.9,4.9,2.2,4.9,4.9-2.2,4.9-4.9,4.9Zm0-8.29c-1.87,0-3.4,1.52-3.4,3.4s1.52,3.4,3.4,3.4,3.4-1.52,3.4-3.4-1.52-3.4-3.4-3.4Z"/>
      <path class="cls-1" d="m63.45,75.17c-2.7,0-4.9-2.2-4.9-4.9s2.2-4.9,4.9-4.9,4.9,2.2,4.9,4.9-2.2,4.9-4.9,4.9Zm0-8.29c-1.87,0-3.4,1.52-3.4,3.4s1.52,3.4,3.4,3.4,3.4-1.52,3.4-3.4-1.52-3.4-3.4-3.4Z"/>
      <path class="cls-1" d="m63.45,88.24c-2.7,0-4.9-2.2-4.9-4.9s2.2-4.9,4.9-4.9,4.9,2.2,4.9,4.9-2.2,4.9-4.9,4.9Zm0-8.29c-1.87,0-3.4,1.52-3.4,3.4s1.52,3.4,3.4,3.4,3.4-1.52,3.4-3.4-1.52-3.4-3.4-3.4Z"/>
      <path class="cls-1" d="m63.45,101.31c-2.7,0-4.9-2.2-4.9-4.9s2.2-4.9,4.9-4.9,4.9,2.2,4.9,4.9-2.2,4.9-4.9,4.9Zm0-8.29c-1.87,0-3.4,1.52-3.4,3.4s1.52,3.4,3.4,3.4,3.4-1.52,3.4-3.4-1.52-3.4-3.4-3.4Z"/>
      <path class="cls-1" d="m63.45,114.39c-2.7,0-4.9-2.2-4.9-4.9s2.2-4.9,4.9-4.9,4.9,2.2,4.9,4.9-2.2,4.9-4.9,4.9Zm0-8.3c-1.87,0-3.4,1.52-3.4,3.4s1.52,3.4,3.4,3.4,3.4-1.52,3.4-3.4-1.52-3.4-3.4-3.4Z"/>
    </g>
  </g>
</svg>