<?xml version="1.0" encoding="UTF-8"?>
<svg id="Capa_2" data-name="Capa 2" xmlns="http://www.w3.org/2000/svg" xmlns:xlink="http://www.w3.org/1999/xlink" viewBox="0 0 170.05 189.41">
  <defs>
    <style>
      .cls-1 {
        fill: #8c15ff;
      }

      .cls-2 {
        clip-path: url(#clippath);
      }

      .cls-3 {
        fill: none;
      }
    </style>
    <clipPath id="clippath">
      <path class="cls-3" d="m161.89,97.52c-9.07-11.58-13.09-26.18-12.55-40.87.02-.67.04-1.34.04-2.01C149.37,24.46,124.91,0,94.74,0c-25.48,0-47.92,17.99-53.39,42.7-2.79,12.63-9.83,23.91-19.48,32.52C8.02,87.58-.53,105.72.03,125.86c.95,34.33,28.83,62.37,63.16,63.51,17.35.57,33.24-5.62,45.26-16.13,8.46-7.4,18.8-12.14,29.87-14.07,18.15-3.16,31.74-19.5,31.74-37.97,0-8.94-3.05-17.16-8.16-23.68Z"/>
    </clipPath>
  </defs>
  <g id="Capa_1-2" data-name="Capa 1">
    <g class="cls-2">
      <g>
        <circle class="cls-1" cx="14.81" cy="88.94" r="2.86"/>
        <circle class="cls-1" cx="24.63" cy="88.94" r="2.86"/>
        <path class="cls-1" d="m24.63,74.91c1.58,0,2.86,1.28,2.86,2.86s-1.28,2.86-2.86,2.86-2.86-1.28-2.86-2.86,1.28-2.86,2.86-2.86Z"/>
        <path class="cls-1" d="m34.45,86.08c1.58,0,2.86,1.28,2.86,2.86s-1.28,2.86-2.86,2.86-2.86-1.28-2.86-2.86,1.28-2.86,2.86-2.86Z"/>
        <path class="cls-1" d="m34.45,74.91c1.58,0,2.86,1.28,2.86,2.86s-1.28,2.86-2.86,2.86-2.86-1.28-2.86-2.86,1.28-2.86,2.86-2.86Z"/>
        <path class="cls-1" d="m34.45,63.74c1.58,0,2.86,1.28,2.86,2.86s-1.28,2.86-2.86,2.86-2.86-1.28-2.86-2.86,1.28-2.86,2.86-2.86Z"/>
        <path class="cls-1" d="m34.45,52.56c1.58,0,2.86,1.28,2.86,2.86s-1.28,2.86-2.86,2.86-2.86-1.28-2.86-2.86,1.28-2.86,2.86-2.86Z"/>
        <circle class="cls-1" cx="44.28" cy="88.94" r="2.86"/>
        <path class="cls-1" d="m44.28,74.91c1.58,0,2.86,1.28,2.86,2.86s-1.28,2.86-2.86,2.86-2.86-1.28-2.86-2.86,1.28-2.86,2.86-2.86Z"/>
        <circle class="cls-1" cx="44.28" cy="66.59" r="2.86"/>
        <circle class="cls-1" cx="44.28" cy="55.42" r="2.86"/>
        <circle class="cls-1" cx="44.28" cy="44.25" r="2.86"/>
        <circle class="cls-1" cx="54.1" cy="88.94" r="2.86"/>
        <path class="cls-1" d="m54.1,74.91c1.58,0,2.86,1.28,2.86,2.86s-1.28,2.86-2.86,2.86-2.86-1.28-2.86-2.86,1.28-2.86,2.86-2.86Z"/>
        <circle class="cls-1" cx="54.1" cy="66.59" r="2.86"/>
        <circle class="cls-1" cx="54.1" cy="55.42" r="2.86"/>
        <circle class="cls-1" cx="54.1" cy="44.25" r="2.86"/>
        <path class="cls-1" d="m63.92,86.08c1.58,0,2.86,1.28,2.86,2.86s-1.28,2.86-2.86,2.86-2.86-1.28-2.86-2.86,1.28-2.86,2.86-2.86Z"/>
        <path class="cls-1" d="m63.92,74.91c1.58,0,2.86,1.28,2.86,2.86s-1.28,2.86-2.86,2.86-2.86-1.28-2.86-2.86,1.28-2.86,2.86-2.86Z"/>
        <path class="cls-1" d="m63.92,63.74c1.58,0,2.86,1.28,2.86,2.86s-1.28,2.86-2.86,2.86-2.86-1.28-2.86-2.86,1.28-2.86,2.86-2.86Z"/>
        <path class="cls-1" d="m63.92,52.56c1.58,0,2.86,1.28,2.86,2.86s-1.28,2.86-2.86,2.86-2.86-1.28-2.86-2.86,1.28-2.86,2.86-2.86Z"/>
        <path class="cls-1" d="m63.92,41.39c1.58,0,2.86,1.28,2.86,2.86s-1.28,2.86-2.86,2.86-2.86-1.28-2.86-2.86,1.28-2.86,2.86-2.86Z"/>
        <circle class="cls-1" cx="73.75" cy="88.94" r="2.86"/>
        <path class="cls-1" d="m73.75,74.91c1.58,0,2.86,1.28,2.86,2.86s-1.28,2.86-2.86,2.86-2.86-1.28-2.86-2.86,1.28-2.86,2.86-2.86Z"/>
        <circle class="cls-1" cx="73.75" cy="66.59" r="2.86"/>
        <circle class="cls-1" cx="73.75" cy="55.42" r="2.86"/>
        <circle class="cls-1" cx="73.75" cy="44.25" r="2.86"/>
        <circle class="cls-1" cx="83.57" cy="88.94" r="2.86"/>
        <path class="cls-1" d="m83.57,74.91c1.58,0,2.86,1.28,2.86,2.86s-1.28,2.86-2.86,2.86-2.86-1.28-2.86-2.86,1.28-2.86,2.86-2.86Z"/>
        <circle class="cls-1" cx="83.57" cy="66.59" r="2.86"/>
        <circle class="cls-1" cx="83.57" cy="55.42" r="2.86"/>
        <circle class="cls-1" cx="83.57" cy="44.25" r="2.86"/>
        <path class="cls-1" d="m93.39,86.08c1.58,0,2.86,1.28,2.86,2.86s-1.28,2.86-2.86,2.86-2.86-1.28-2.86-2.86,1.28-2.86,2.86-2.86Z"/>
        <path class="cls-1" d="m93.39,74.91c1.58,0,2.86,1.28,2.86,2.86s-1.28,2.86-2.86,2.86-2.86-1.28-2.86-2.86,1.28-2.86,2.86-2.86Z"/>
        <path class="cls-1" d="m93.39,63.74c1.58,0,2.86,1.28,2.86,2.86s-1.28,2.86-2.86,2.86-2.86-1.28-2.86-2.86,1.28-2.86,2.86-2.86Z"/>
        <path class="cls-1" d="m93.39,52.56c1.58,0,2.86,1.28,2.86,2.86s-1.28,2.86-2.86,2.86-2.86-1.28-2.86-2.86,1.28-2.86,2.86-2.86Z"/>
        <path class="cls-1" d="m93.39,41.39c1.58,0,2.86,1.28,2.86,2.86s-1.28,2.86-2.86,2.86-2.86-1.28-2.86-2.86,1.28-2.86,2.86-2.86Z"/>
        <circle class="cls-1" cx="103.21" cy="88.94" r="2.86"/>
        <path class="cls-1" d="m103.21,74.91c1.58,0,2.86,1.28,2.86,2.86s-1.28,2.86-2.86,2.86-2.86-1.28-2.86-2.86,1.28-2.86,2.86-2.86Z"/>
        <circle class="cls-1" cx="103.21" cy="66.59" r="2.86"/>
        <circle class="cls-1" cx="103.21" cy="55.42" r="2.86"/>
        <circle class="cls-1" cx="103.21" cy="44.25" r="2.86"/>
        <circle class="cls-1" cx="44.28" cy="33.24" r="2.86"/>
        <circle class="cls-1" cx="54.1" cy="33.24" r="2.86"/>
        <circle class="cls-1" cx="54.1" cy="22.07" r="2.86"/>
        <path class="cls-1" d="m63.92,30.38c1.58,0,2.86,1.28,2.86,2.86s-1.28,2.86-2.86,2.86-2.86-1.28-2.86-2.86,1.28-2.86,2.86-2.86Z"/>
        <path class="cls-1" d="m63.92,19.21c1.58,0,2.86,1.28,2.86,2.86s-1.28,2.86-2.86,2.86-2.86-1.28-2.86-2.86,1.28-2.86,2.86-2.86Z"/>
        <path class="cls-1" d="m63.92,8.04c1.58,0,2.86,1.28,2.86,2.86s-1.28,2.86-2.86,2.86-2.86-1.28-2.86-2.86,1.28-2.86,2.86-2.86Z"/>
        <circle class="cls-1" cx="73.75" cy="33.24" r="2.86"/>
        <circle class="cls-1" cx="73.75" cy="22.07" r="2.86"/>
        <path class="cls-1" d="m73.75,8.04c1.58,0,2.86,1.28,2.86,2.86s-1.28,2.86-2.86,2.86-2.86-1.28-2.86-2.86,1.28-2.86,2.86-2.86Z"/>
        <circle class="cls-1" cx="83.57" cy="33.24" r="2.86"/>
        <circle class="cls-1" cx="83.57" cy="22.07" r="2.86"/>
        <path class="cls-1" d="m83.57,8.04c1.58,0,2.86,1.28,2.86,2.86s-1.28,2.86-2.86,2.86-2.86-1.28-2.86-2.86,1.28-2.86,2.86-2.86Z"/>
        <circle class="cls-1" cx="83.57" cy="-.27" r="2.86"/>
        <path class="cls-1" d="m93.39,30.38c1.58,0,2.86,1.28,2.86,2.86s-1.28,2.86-2.86,2.86-2.86-1.28-2.86-2.86,1.28-2.86,2.86-2.86Z"/>
        <path class="cls-1" d="m93.39,19.21c1.58,0,2.86,1.28,2.86,2.86s-1.28,2.86-2.86,2.86-2.86-1.28-2.86-2.86,1.28-2.86,2.86-2.86Z"/>
        <path class="cls-1" d="m93.39,8.04c1.58,0,2.86,1.28,2.86,2.86s-1.28,2.86-2.86,2.86-2.86-1.28-2.86-2.86,1.28-2.86,2.86-2.86Z"/>
        <path class="cls-1" d="m93.39-3.13c1.58,0,2.86,1.28,2.86,2.86s-1.28,2.86-2.86,2.86-2.86-1.28-2.86-2.86,1.28-2.86,2.86-2.86Z"/>
        <circle class="cls-1" cx="103.21" cy="33.24" r="2.86"/>
        <circle class="cls-1" cx="103.21" cy="22.07" r="2.86"/>
        <path class="cls-1" d="m103.21,8.04c1.58,0,2.86,1.28,2.86,2.86s-1.28,2.86-2.86,2.86-2.86-1.28-2.86-2.86,1.28-2.86,2.86-2.86Z"/>
        <circle class="cls-1" cx="103.21" cy="-.27" r="2.86"/>
        <circle class="cls-1" cx="113.34" cy="88.86" r="2.86"/>
        <path class="cls-1" d="m113.34,74.83c1.58,0,2.86,1.28,2.86,2.86s-1.28,2.86-2.86,2.86-2.86-1.28-2.86-2.86,1.28-2.86,2.86-2.86Z"/>
        <circle class="cls-1" cx="113.34" cy="66.51" r="2.86"/>
        <circle class="cls-1" cx="113.34" cy="55.34" r="2.86"/>
        <circle class="cls-1" cx="113.34" cy="44.17" r="2.86"/>
        <circle class="cls-1" cx="113.34" cy="33.16" r="2.86"/>
        <circle class="cls-1" cx="113.34" cy="21.99" r="2.86"/>
        <path class="cls-1" d="m113.34,7.96c1.58,0,2.86,1.28,2.86,2.86s-1.28,2.86-2.86,2.86-2.86-1.28-2.86-2.86,1.28-2.86,2.86-2.86Z"/>
        <circle class="cls-1" cx="123.46" cy="88.77" r="2.86"/>
        <path class="cls-1" d="m123.46,74.74c1.58,0,2.86,1.28,2.86,2.86s-1.28,2.86-2.86,2.86-2.86-1.28-2.86-2.86,1.28-2.86,2.86-2.86Z"/>
        <circle class="cls-1" cx="123.46" cy="66.43" r="2.86"/>
        <circle class="cls-1" cx="123.46" cy="55.26" r="2.86"/>
        <circle class="cls-1" cx="123.46" cy="44.09" r="2.86"/>
        <circle class="cls-1" cx="123.46" cy="33.08" r="2.86"/>
        <circle class="cls-1" cx="123.46" cy="21.91" r="2.86"/>
        <path class="cls-1" d="m123.46,7.88c1.58,0,2.86,1.28,2.86,2.86s-1.28,2.86-2.86,2.86-2.86-1.28-2.86-2.86,1.28-2.86,2.86-2.86Z"/>
        <circle class="cls-1" cx="133.67" cy="88.69" r="2.86"/>
        <path class="cls-1" d="m133.67,74.66c1.58,0,2.86,1.28,2.86,2.86s-1.28,2.86-2.86,2.86-2.86-1.28-2.86-2.86,1.28-2.86,2.86-2.86Z"/>
        <circle class="cls-1" cx="133.67" cy="66.35" r="2.86"/>
        <circle class="cls-1" cx="133.67" cy="55.18" r="2.86"/>
        <circle class="cls-1" cx="133.67" cy="44.01" r="2.86"/>
        <circle class="cls-1" cx="133.67" cy="33" r="2.86"/>
        <circle class="cls-1" cx="133.67" cy="21.83" r="2.86"/>
        <circle class="cls-1" cx="144.17" cy="88.77" r="2.86"/>
        <path class="cls-1" d="m144.17,74.74c1.58,0,2.86,1.28,2.86,2.86s-1.28,2.86-2.86,2.86-2.86-1.28-2.86-2.86,1.28-2.86,2.86-2.86Z"/>
        <circle class="cls-1" cx="144.17" cy="66.43" r="2.86"/>
        <circle class="cls-1" cx="144.17" cy="55.26" r="2.86"/>
        <circle class="cls-1" cx="144.17" cy="44.09" r="2.86"/>
        <circle class="cls-1" cx="144.17" cy="33.08" r="2.86"/>
        <circle class="cls-1" cx="154.67" cy="88.61" r="2.86"/>
        <path class="cls-1" d="m154.67,74.58c1.58,0,2.86,1.28,2.86,2.86s-1.28,2.86-2.86,2.86-2.86-1.28-2.86-2.86,1.28-2.86,2.86-2.86Z"/>
        <path class="cls-1" d="m4.98,152.57c1.58,0,2.86,1.28,2.86,2.86s-1.28,2.86-2.86,2.86-2.86-1.28-2.86-2.86,1.28-2.86,2.86-2.86Z"/>
        <path class="cls-1" d="m4.98,141.4c1.58,0,2.86,1.28,2.86,2.86s-1.28,2.86-2.86,2.86-2.86-1.28-2.86-2.86,1.28-2.86,2.86-2.86Z"/>
        <circle class="cls-1" cx="14.81" cy="166.6" r="2.86"/>
        <circle class="cls-1" cx="14.81" cy="155.43" r="2.86"/>
        <circle class="cls-1" cx="14.81" cy="144.26" r="2.86"/>
        <path class="cls-1" d="m24.63,174.91c1.58,0,2.86,1.28,2.86,2.86s-1.28,2.86-2.86,2.86-2.86-1.28-2.86-2.86,1.28-2.86,2.86-2.86Z"/>
        <circle class="cls-1" cx="24.63" cy="166.6" r="2.86"/>
        <circle class="cls-1" cx="24.63" cy="155.43" r="2.86"/>
        <circle class="cls-1" cx="24.63" cy="144.26" r="2.86"/>
        <path class="cls-1" d="m34.45,174.91c1.58,0,2.86,1.28,2.86,2.86s-1.28,2.86-2.86,2.86-2.86-1.28-2.86-2.86,1.28-2.86,2.86-2.86Z"/>
        <path class="cls-1" d="m34.45,163.74c1.58,0,2.86,1.28,2.86,2.86s-1.28,2.86-2.86,2.86-2.86-1.28-2.86-2.86,1.28-2.86,2.86-2.86Z"/>
        <path class="cls-1" d="m34.45,152.57c1.58,0,2.86,1.28,2.86,2.86s-1.28,2.86-2.86,2.86-2.86-1.28-2.86-2.86,1.28-2.86,2.86-2.86Z"/>
        <path class="cls-1" d="m34.45,141.4c1.58,0,2.86,1.28,2.86,2.86s-1.28,2.86-2.86,2.86-2.86-1.28-2.86-2.86,1.28-2.86,2.86-2.86Z"/>
        <circle class="cls-1" cx="44.28" cy="188.94" r="2.86"/>
        <path class="cls-1" d="m44.28,174.91c1.58,0,2.86,1.28,2.86,2.86s-1.28,2.86-2.86,2.86-2.86-1.28-2.86-2.86,1.28-2.86,2.86-2.86Z"/>
        <circle class="cls-1" cx="44.28" cy="166.6" r="2.86"/>
        <circle class="cls-1" cx="44.28" cy="155.43" r="2.86"/>
        <circle class="cls-1" cx="44.28" cy="144.26" r="2.86"/>
        <circle class="cls-1" cx="54.1" cy="188.94" r="2.86"/>
        <path class="cls-1" d="m54.1,174.91c1.58,0,2.86,1.28,2.86,2.86s-1.28,2.86-2.86,2.86-2.86-1.28-2.86-2.86,1.28-2.86,2.86-2.86Z"/>
        <circle class="cls-1" cx="54.1" cy="166.6" r="2.86"/>
        <circle class="cls-1" cx="54.1" cy="155.43" r="2.86"/>
        <circle class="cls-1" cx="54.1" cy="144.26" r="2.86"/>
        <path class="cls-1" d="m63.92,186.08c1.58,0,2.86,1.28,2.86,2.86s-1.28,2.86-2.86,2.86-2.86-1.28-2.86-2.86,1.28-2.86,2.86-2.86Z"/>
        <path class="cls-1" d="m63.92,174.91c1.58,0,2.86,1.28,2.86,2.86s-1.28,2.86-2.86,2.86-2.86-1.28-2.86-2.86,1.28-2.86,2.86-2.86Z"/>
        <path class="cls-1" d="m63.92,163.74c1.58,0,2.86,1.28,2.86,2.86s-1.28,2.86-2.86,2.86-2.86-1.28-2.86-2.86,1.28-2.86,2.86-2.86Z"/>
        <path class="cls-1" d="m63.92,152.57c1.58,0,2.86,1.28,2.86,2.86s-1.28,2.86-2.86,2.86-2.86-1.28-2.86-2.86,1.28-2.86,2.86-2.86Z"/>
        <path class="cls-1" d="m63.92,141.4c1.58,0,2.86,1.28,2.86,2.86s-1.28,2.86-2.86,2.86-2.86-1.28-2.86-2.86,1.28-2.86,2.86-2.86Z"/>
        <circle class="cls-1" cx="73.75" cy="188.94" r="2.86"/>
        <path class="cls-1" d="m73.75,174.91c1.58,0,2.86,1.28,2.86,2.86s-1.28,2.86-2.86,2.86-2.86-1.28-2.86-2.86,1.28-2.86,2.86-2.86Z"/>
        <circle class="cls-1" cx="73.75" cy="166.6" r="2.86"/>
        <circle class="cls-1" cx="73.75" cy="155.43" r="2.86"/>
        <circle class="cls-1" cx="73.75" cy="144.26" r="2.86"/>
        <circle class="cls-1" cx="83.57" cy="188.94" r="2.86"/>
        <path class="cls-1" d="m83.57,174.91c1.58,0,2.86,1.28,2.86,2.86s-1.28,2.86-2.86,2.86-2.86-1.28-2.86-2.86,1.28-2.86,2.86-2.86Z"/>
        <circle class="cls-1" cx="83.57" cy="166.6" r="2.86"/>
        <circle class="cls-1" cx="83.57" cy="155.43" r="2.86"/>
        <circle class="cls-1" cx="83.57" cy="144.26" r="2.86"/>
        <path class="cls-1" d="m93.39,174.91c1.58,0,2.86,1.28,2.86,2.86s-1.28,2.86-2.86,2.86-2.86-1.28-2.86-2.86,1.28-2.86,2.86-2.86Z"/>
        <path class="cls-1" d="m93.39,163.74c1.58,0,2.86,1.28,2.86,2.86s-1.28,2.86-2.86,2.86-2.86-1.28-2.86-2.86,1.28-2.86,2.86-2.86Z"/>
        <path class="cls-1" d="m93.39,152.57c1.58,0,2.86,1.28,2.86,2.86s-1.28,2.86-2.86,2.86-2.86-1.28-2.86-2.86,1.28-2.86,2.86-2.86Z"/>
        <path class="cls-1" d="m93.39,141.4c1.58,0,2.86,1.28,2.86,2.86s-1.28,2.86-2.86,2.86-2.86-1.28-2.86-2.86,1.28-2.86,2.86-2.86Z"/>
        <path class="cls-1" d="m103.21,174.91c1.58,0,2.86,1.28,2.86,2.86s-1.28,2.86-2.86,2.86-2.86-1.28-2.86-2.86,1.28-2.86,2.86-2.86Z"/>
        <circle class="cls-1" cx="103.21" cy="166.6" r="2.86"/>
        <circle class="cls-1" cx="103.21" cy="155.43" r="2.86"/>
        <circle class="cls-1" cx="103.21" cy="144.26" r="2.86"/>
        <path class="cls-1" d="m4.98,130.39c1.58,0,2.86,1.28,2.86,2.86s-1.28,2.86-2.86,2.86-2.86-1.28-2.86-2.86,1.28-2.86,2.86-2.86Z"/>
        <path class="cls-1" d="m4.98,119.22c1.58,0,2.86,1.28,2.86,2.86s-1.28,2.86-2.86,2.86-2.86-1.28-2.86-2.86,1.28-2.86,2.86-2.86Z"/>
        <path class="cls-1" d="m4.98,108.05c1.58,0,2.86,1.28,2.86,2.86s-1.28,2.86-2.86,2.86-2.86-1.28-2.86-2.86,1.28-2.86,2.86-2.86Z"/>
        <path class="cls-1" d="m4.98,96.88c1.58,0,2.86,1.28,2.86,2.86s-1.28,2.86-2.86,2.86-2.86-1.28-2.86-2.86,1.28-2.86,2.86-2.86Z"/>
        <circle class="cls-1" cx="14.81" cy="133.25" r="2.86"/>
        <circle class="cls-1" cx="14.81" cy="122.08" r="2.86"/>
        <path class="cls-1" d="m14.81,108.05c1.58,0,2.86,1.28,2.86,2.86s-1.28,2.86-2.86,2.86-2.86-1.28-2.86-2.86,1.28-2.86,2.86-2.86Z"/>
        <circle class="cls-1" cx="14.81" cy="99.73" r="2.86"/>
        <circle class="cls-1" cx="24.63" cy="133.25" r="2.86"/>
        <circle class="cls-1" cx="24.63" cy="122.08" r="2.86"/>
        <path class="cls-1" d="m24.63,108.05c1.58,0,2.86,1.28,2.86,2.86s-1.28,2.86-2.86,2.86-2.86-1.28-2.86-2.86,1.28-2.86,2.86-2.86Z"/>
        <circle class="cls-1" cx="24.63" cy="99.73" r="2.86"/>
        <path class="cls-1" d="m34.45,130.39c1.58,0,2.86,1.28,2.86,2.86s-1.28,2.86-2.86,2.86-2.86-1.28-2.86-2.86,1.28-2.86,2.86-2.86Z"/>
        <path class="cls-1" d="m34.45,119.22c1.58,0,2.86,1.28,2.86,2.86s-1.28,2.86-2.86,2.86-2.86-1.28-2.86-2.86,1.28-2.86,2.86-2.86Z"/>
        <path class="cls-1" d="m34.45,108.05c1.58,0,2.86,1.28,2.86,2.86s-1.28,2.86-2.86,2.86-2.86-1.28-2.86-2.86,1.28-2.86,2.86-2.86Z"/>
        <path class="cls-1" d="m34.45,96.88c1.58,0,2.86,1.28,2.86,2.86s-1.28,2.86-2.86,2.86-2.86-1.28-2.86-2.86,1.28-2.86,2.86-2.86Z"/>
        <circle class="cls-1" cx="44.28" cy="133.25" r="2.86"/>
        <circle class="cls-1" cx="44.28" cy="122.08" r="2.86"/>
        <path class="cls-1" d="m44.28,108.05c1.58,0,2.86,1.28,2.86,2.86s-1.28,2.86-2.86,2.86-2.86-1.28-2.86-2.86,1.28-2.86,2.86-2.86Z"/>
        <circle class="cls-1" cx="44.28" cy="99.73" r="2.86"/>
        <circle class="cls-1" cx="54.1" cy="133.25" r="2.86"/>
        <circle class="cls-1" cx="54.1" cy="122.08" r="2.86"/>
        <path class="cls-1" d="m54.1,108.05c1.58,0,2.86,1.28,2.86,2.86s-1.28,2.86-2.86,2.86-2.86-1.28-2.86-2.86,1.28-2.86,2.86-2.86Z"/>
        <circle class="cls-1" cx="54.1" cy="99.73" r="2.86"/>
        <path class="cls-1" d="m63.92,130.39c1.58,0,2.86,1.28,2.86,2.86s-1.28,2.86-2.86,2.86-2.86-1.28-2.86-2.86,1.28-2.86,2.86-2.86Z"/>
        <path class="cls-1" d="m63.92,119.22c1.58,0,2.86,1.28,2.86,2.86s-1.28,2.86-2.86,2.86-2.86-1.28-2.86-2.86,1.28-2.86,2.86-2.86Z"/>
        <path class="cls-1" d="m63.92,108.05c1.58,0,2.86,1.28,2.86,2.86s-1.28,2.86-2.86,2.86-2.86-1.28-2.86-2.86,1.28-2.86,2.86-2.86Z"/>
        <path class="cls-1" d="m63.92,96.88c1.58,0,2.86,1.28,2.86,2.86s-1.28,2.86-2.86,2.86-2.86-1.28-2.86-2.86,1.28-2.86,2.86-2.86Z"/>
        <circle class="cls-1" cx="73.75" cy="133.25" r="2.86"/>
        <circle class="cls-1" cx="73.75" cy="122.08" r="2.86"/>
        <path class="cls-1" d="m73.75,108.05c1.58,0,2.86,1.28,2.86,2.86s-1.28,2.86-2.86,2.86-2.86-1.28-2.86-2.86,1.28-2.86,2.86-2.86Z"/>
        <circle class="cls-1" cx="73.75" cy="99.73" r="2.86"/>
        <circle class="cls-1" cx="83.57" cy="133.25" r="2.86"/>
        <circle class="cls-1" cx="83.57" cy="122.08" r="2.86"/>
        <path class="cls-1" d="m83.57,108.05c1.58,0,2.86,1.28,2.86,2.86s-1.28,2.86-2.86,2.86-2.86-1.28-2.86-2.86,1.28-2.86,2.86-2.86Z"/>
        <circle class="cls-1" cx="83.57" cy="99.73" r="2.86"/>
        <path class="cls-1" d="m93.39,130.39c1.58,0,2.86,1.28,2.86,2.86s-1.28,2.86-2.86,2.86-2.86-1.28-2.86-2.86,1.28-2.86,2.86-2.86Z"/>
        <path class="cls-1" d="m93.39,119.22c1.58,0,2.86,1.28,2.86,2.86s-1.28,2.86-2.86,2.86-2.86-1.28-2.86-2.86,1.28-2.86,2.86-2.86Z"/>
        <path class="cls-1" d="m93.39,108.05c1.58,0,2.86,1.28,2.86,2.86s-1.28,2.86-2.86,2.86-2.86-1.28-2.86-2.86,1.28-2.86,2.86-2.86Z"/>
        <path class="cls-1" d="m93.39,96.88c1.58,0,2.86,1.28,2.86,2.86s-1.28,2.86-2.86,2.86-2.86-1.28-2.86-2.86,1.28-2.86,2.86-2.86Z"/>
        <circle class="cls-1" cx="103.21" cy="133.25" r="2.86"/>
        <circle class="cls-1" cx="103.21" cy="122.08" r="2.86"/>
        <path class="cls-1" d="m103.21,108.05c1.58,0,2.86,1.28,2.86,2.86s-1.28,2.86-2.86,2.86-2.86-1.28-2.86-2.86,1.28-2.86,2.86-2.86Z"/>
        <circle class="cls-1" cx="103.21" cy="99.73" r="2.86"/>
        <circle class="cls-1" cx="113.34" cy="166.52" r="2.86"/>
        <circle class="cls-1" cx="113.34" cy="155.35" r="2.86"/>
        <circle class="cls-1" cx="113.34" cy="144.18" r="2.86"/>
        <circle class="cls-1" cx="113.34" cy="133.17" r="2.86"/>
        <circle class="cls-1" cx="113.34" cy="122" r="2.86"/>
        <path class="cls-1" d="m113.34,107.97c1.58,0,2.86,1.28,2.86,2.86s-1.28,2.86-2.86,2.86-2.86-1.28-2.86-2.86,1.28-2.86,2.86-2.86Z"/>
        <circle class="cls-1" cx="113.34" cy="99.65" r="2.86"/>
        <circle class="cls-1" cx="123.46" cy="166.44" r="2.86"/>
        <circle class="cls-1" cx="123.46" cy="155.27" r="2.86"/>
        <circle class="cls-1" cx="123.46" cy="144.1" r="2.86"/>
        <circle class="cls-1" cx="123.46" cy="133.09" r="2.86"/>
        <circle class="cls-1" cx="123.46" cy="121.92" r="2.86"/>
        <path class="cls-1" d="m123.46,107.89c1.58,0,2.86,1.28,2.86,2.86s-1.28,2.86-2.86,2.86-2.86-1.28-2.86-2.86,1.28-2.86,2.86-2.86Z"/>
        <circle class="cls-1" cx="123.46" cy="99.57" r="2.86"/>
        <circle class="cls-1" cx="133.67" cy="155.19" r="2.86"/>
        <circle class="cls-1" cx="133.67" cy="144.01" r="2.86"/>
        <circle class="cls-1" cx="133.67" cy="133.01" r="2.86"/>
        <circle class="cls-1" cx="133.67" cy="121.83" r="2.86"/>
        <path class="cls-1" d="m133.67,107.8c1.58,0,2.86,1.28,2.86,2.86s-1.28,2.86-2.86,2.86-2.86-1.28-2.86-2.86,1.28-2.86,2.86-2.86Z"/>
        <circle class="cls-1" cx="133.67" cy="99.49" r="2.86"/>
        <circle class="cls-1" cx="144.17" cy="155.27" r="2.86"/>
        <circle class="cls-1" cx="144.17" cy="144.1" r="2.86"/>
        <circle class="cls-1" cx="144.17" cy="133.09" r="2.86"/>
        <circle class="cls-1" cx="144.17" cy="121.92" r="2.86"/>
        <path class="cls-1" d="m144.17,107.89c1.58,0,2.86,1.28,2.86,2.86s-1.28,2.86-2.86,2.86-2.86-1.28-2.86-2.86,1.28-2.86,2.86-2.86Z"/>
        <circle class="cls-1" cx="144.17" cy="99.57" r="2.86"/>
        <circle class="cls-1" cx="154.67" cy="155.1" r="2.86"/>
        <circle class="cls-1" cx="154.67" cy="143.93" r="2.86"/>
        <circle class="cls-1" cx="154.67" cy="132.92" r="2.86"/>
        <circle class="cls-1" cx="154.67" cy="121.75" r="2.86"/>
        <path class="cls-1" d="m154.67,107.72c1.58,0,2.86,1.28,2.86,2.86s-1.28,2.86-2.86,2.86-2.86-1.28-2.86-2.86,1.28-2.86,2.86-2.86Z"/>
        <circle class="cls-1" cx="154.67" cy="99.41" r="2.86"/>
        <circle class="cls-1" cx="165.07" cy="143.85" r="2.86"/>
        <circle class="cls-1" cx="165.07" cy="132.84" r="2.86"/>
        <circle class="cls-1" cx="165.07" cy="121.67" r="2.86"/>
        <path class="cls-1" d="m165.07,107.64c1.58,0,2.86,1.28,2.86,2.86s-1.28,2.86-2.86,2.86-2.86-1.28-2.86-2.86,1.28-2.86,2.86-2.86Z"/>
        <circle class="cls-1" cx="165.07" cy="99.33" r="2.86"/>
      </g>
    </g>
  </g>
</svg>