<?xml version="1.0" encoding="UTF-8"?>
<svg id="Capa_2" data-name="Capa 2" xmlns="http://www.w3.org/2000/svg" viewBox="0 0 117.27 103.95">
  <defs>
    <style>
      .cls-1 {
        fill: #8c15ff;
      }
    </style>
  </defs>
  <g id="Capa_1-2" data-name="Capa 1">
    <g>
      <path class="cls-1" d="m5.72,2.86c0,1.58-1.28,2.86-2.86,2.86S0,4.44,0,2.86,1.28,0,2.86,0s2.86,1.28,2.86,2.86Z"/>
      <path class="cls-1" d="m16.89,2.86c0,1.58-1.28,2.86-2.86,2.86s-2.86-1.28-2.86-2.86,1.28-2.86,2.86-2.86,2.86,1.28,2.86,2.86Z"/>
      <path class="cls-1" d="m28.06,2.86c0,1.58-1.28,2.86-2.86,2.86s-2.86-1.28-2.86-2.86,1.28-2.86,2.86-2.86,2.86,1.28,2.86,2.86Z"/>
      <path class="cls-1" d="m39.23,2.86c0,1.58-1.28,2.86-2.86,2.86s-2.86-1.28-2.86-2.86,1.28-2.86,2.86-2.86,2.86,1.28,2.86,2.86Z"/>
      <path class="cls-1" d="m50.4,2.86c0,1.58-1.28,2.86-2.86,2.86s-2.86-1.28-2.86-2.86,1.28-2.86,2.86-2.86,2.86,1.28,2.86,2.86Z"/>
      <path class="cls-1" d="m61.57,2.86c0,1.58-1.28,2.86-2.86,2.86s-2.86-1.28-2.86-2.86,1.28-2.86,2.86-2.86,2.86,1.28,2.86,2.86Z"/>
      <circle class="cls-1" cx="2.86" cy="12.68" r="2.86"/>
      <circle class="cls-1" cx="14.03" cy="12.68" r="2.86"/>
      <path class="cls-1" d="m28.06,12.68c0,1.58-1.28,2.86-2.86,2.86s-2.86-1.28-2.86-2.86,1.28-2.86,2.86-2.86,2.86,1.28,2.86,2.86Z"/>
      <circle class="cls-1" cx="36.37" cy="12.68" r="2.86"/>
      <circle class="cls-1" cx="47.54" cy="12.68" r="2.86"/>
      <circle class="cls-1" cx="58.71" cy="12.68" r="2.86"/>
      <circle class="cls-1" cx="2.86" cy="22.5" r="2.86"/>
      <circle class="cls-1" cx="14.03" cy="22.5" r="2.86"/>
      <path class="cls-1" d="m28.06,22.5c0,1.58-1.28,2.86-2.86,2.86s-2.86-1.28-2.86-2.86,1.28-2.86,2.86-2.86,2.86,1.28,2.86,2.86Z"/>
      <circle class="cls-1" cx="36.37" cy="22.5" r="2.86"/>
      <circle class="cls-1" cx="47.54" cy="22.5" r="2.86"/>
      <circle class="cls-1" cx="58.71" cy="22.5" r="2.86"/>
      <path class="cls-1" d="m5.72,32.33c0,1.58-1.28,2.86-2.86,2.86s-2.86-1.28-2.86-2.86,1.28-2.86,2.86-2.86,2.86,1.28,2.86,2.86Z"/>
      <path class="cls-1" d="m16.89,32.33c0,1.58-1.28,2.86-2.86,2.86s-2.86-1.28-2.86-2.86,1.28-2.86,2.86-2.86,2.86,1.28,2.86,2.86Z"/>
      <path class="cls-1" d="m28.06,32.33c0,1.58-1.28,2.86-2.86,2.86s-2.86-1.28-2.86-2.86,1.28-2.86,2.86-2.86,2.86,1.28,2.86,2.86Z"/>
      <path class="cls-1" d="m39.23,32.33c0,1.58-1.28,2.86-2.86,2.86s-2.86-1.28-2.86-2.86,1.28-2.86,2.86-2.86,2.86,1.28,2.86,2.86Z"/>
      <path class="cls-1" d="m50.4,32.33c0,1.58-1.28,2.86-2.86,2.86s-2.86-1.28-2.86-2.86,1.28-2.86,2.86-2.86,2.86,1.28,2.86,2.86Z"/>
      <path class="cls-1" d="m61.57,32.33c0,1.58-1.28,2.86-2.86,2.86s-2.86-1.28-2.86-2.86,1.28-2.86,2.86-2.86,2.86,1.28,2.86,2.86Z"/>
      <circle class="cls-1" cx="2.86" cy="42.15" r="2.86"/>
      <circle class="cls-1" cx="14.03" cy="42.15" r="2.86"/>
      <path class="cls-1" d="m28.06,42.15c0,1.58-1.28,2.86-2.86,2.86s-2.86-1.28-2.86-2.86,1.28-2.86,2.86-2.86,2.86,1.28,2.86,2.86Z"/>
      <circle class="cls-1" cx="36.37" cy="42.15" r="2.86"/>
      <circle class="cls-1" cx="47.54" cy="42.15" r="2.86"/>
      <circle class="cls-1" cx="58.71" cy="42.15" r="2.86"/>
      <circle class="cls-1" cx="2.86" cy="51.97" r="2.86"/>
      <circle class="cls-1" cx="14.03" cy="51.97" r="2.86"/>
      <path class="cls-1" d="m28.06,51.97c0,1.58-1.28,2.86-2.86,2.86s-2.86-1.28-2.86-2.86,1.28-2.86,2.86-2.86,2.86,1.28,2.86,2.86Z"/>
      <circle class="cls-1" cx="36.37" cy="51.97" r="2.86"/>
      <circle class="cls-1" cx="47.54" cy="51.97" r="2.86"/>
      <circle class="cls-1" cx="58.71" cy="51.97" r="2.86"/>
      <path class="cls-1" d="m5.72,61.8c0,1.58-1.28,2.86-2.86,2.86s-2.86-1.28-2.86-2.86,1.28-2.86,2.86-2.86,2.86,1.28,2.86,2.86Z"/>
      <path class="cls-1" d="m16.89,61.8c0,1.58-1.28,2.86-2.86,2.86s-2.86-1.28-2.86-2.86,1.28-2.86,2.86-2.86,2.86,1.28,2.86,2.86Z"/>
      <path class="cls-1" d="m28.06,61.8c0,1.58-1.28,2.86-2.86,2.86s-2.86-1.28-2.86-2.86,1.28-2.86,2.86-2.86,2.86,1.28,2.86,2.86Z"/>
      <path class="cls-1" d="m39.23,61.8c0,1.58-1.28,2.86-2.86,2.86s-2.86-1.28-2.86-2.86,1.28-2.86,2.86-2.86,2.86,1.28,2.86,2.86Z"/>
      <path class="cls-1" d="m50.4,61.8c0,1.58-1.28,2.86-2.86,2.86s-2.86-1.28-2.86-2.86,1.28-2.86,2.86-2.86,2.86,1.28,2.86,2.86Z"/>
      <path class="cls-1" d="m61.57,61.8c0,1.58-1.28,2.86-2.86,2.86s-2.86-1.28-2.86-2.86,1.28-2.86,2.86-2.86,2.86,1.28,2.86,2.86Z"/>
      <circle class="cls-1" cx="2.86" cy="71.62" r="2.86"/>
      <circle class="cls-1" cx="14.03" cy="71.62" r="2.86"/>
      <path class="cls-1" d="m28.06,71.62c0,1.58-1.28,2.86-2.86,2.86s-2.86-1.28-2.86-2.86,1.28-2.86,2.86-2.86,2.86,1.28,2.86,2.86Z"/>
      <circle class="cls-1" cx="36.37" cy="71.62" r="2.86"/>
      <circle class="cls-1" cx="47.54" cy="71.62" r="2.86"/>
      <circle class="cls-1" cx="58.71" cy="71.62" r="2.86"/>
      <circle class="cls-1" cx="2.86" cy="81.44" r="2.86"/>
      <circle class="cls-1" cx="14.03" cy="81.44" r="2.86"/>
      <path class="cls-1" d="m28.06,81.44c0,1.58-1.28,2.86-2.86,2.86s-2.86-1.28-2.86-2.86,1.28-2.86,2.86-2.86,2.86,1.28,2.86,2.86Z"/>
      <circle class="cls-1" cx="36.37" cy="81.44" r="2.86"/>
      <circle class="cls-1" cx="47.54" cy="81.44" r="2.86"/>
      <circle class="cls-1" cx="58.71" cy="81.44" r="2.86"/>
      <path class="cls-1" d="m5.72,91.27c0,1.58-1.28,2.86-2.86,2.86s-2.86-1.28-2.86-2.86,1.28-2.86,2.86-2.86,2.86,1.28,2.86,2.86Z"/>
      <path class="cls-1" d="m16.89,91.27c0,1.58-1.28,2.86-2.86,2.86s-2.86-1.28-2.86-2.86,1.28-2.86,2.86-2.86,2.86,1.28,2.86,2.86Z"/>
      <path class="cls-1" d="m28.06,91.27c0,1.58-1.28,2.86-2.86,2.86s-2.86-1.28-2.86-2.86,1.28-2.86,2.86-2.86,2.86,1.28,2.86,2.86Z"/>
      <path class="cls-1" d="m39.23,91.27c0,1.58-1.28,2.86-2.86,2.86s-2.86-1.28-2.86-2.86,1.28-2.86,2.86-2.86,2.86,1.28,2.86,2.86Z"/>
      <path class="cls-1" d="m50.4,91.27c0,1.58-1.28,2.86-2.86,2.86s-2.86-1.28-2.86-2.86,1.28-2.86,2.86-2.86,2.86,1.28,2.86,2.86Z"/>
      <path class="cls-1" d="m61.57,91.27c0,1.58-1.28,2.86-2.86,2.86s-2.86-1.28-2.86-2.86,1.28-2.86,2.86-2.86,2.86,1.28,2.86,2.86Z"/>
      <circle class="cls-1" cx="2.86" cy="101.09" r="2.86"/>
      <circle class="cls-1" cx="14.03" cy="101.09" r="2.86"/>
      <path class="cls-1" d="m28.06,101.09c0,1.58-1.28,2.86-2.86,2.86s-2.86-1.28-2.86-2.86,1.28-2.86,2.86-2.86,2.86,1.28,2.86,2.86Z"/>
      <circle class="cls-1" cx="36.37" cy="101.09" r="2.86"/>
      <circle class="cls-1" cx="47.54" cy="101.09" r="2.86"/>
      <circle class="cls-1" cx="58.71" cy="101.09" r="2.86"/>
      <path class="cls-1" d="m72.58,2.86c0,1.58-1.28,2.86-2.86,2.86s-2.86-1.28-2.86-2.86,1.28-2.86,2.86-2.86,2.86,1.28,2.86,2.86Z"/>
      <path class="cls-1" d="m83.75,2.86c0,1.58-1.28,2.86-2.86,2.86s-2.86-1.28-2.86-2.86,1.28-2.86,2.86-2.86,2.86,1.28,2.86,2.86Z"/>
      <path class="cls-1" d="m94.92,2.86c0,1.58-1.28,2.86-2.86,2.86s-2.86-1.28-2.86-2.86,1.28-2.86,2.86-2.86,2.86,1.28,2.86,2.86Z"/>
      <path class="cls-1" d="m106.1,2.86c0,1.58-1.28,2.86-2.86,2.86s-2.86-1.28-2.86-2.86,1.28-2.86,2.86-2.86,2.86,1.28,2.86,2.86Z"/>
      <path class="cls-1" d="m117.27,2.86c0,1.58-1.28,2.86-2.86,2.86s-2.86-1.28-2.86-2.86,1.28-2.86,2.86-2.86,2.86,1.28,2.86,2.86Z"/>
      <circle class="cls-1" cx="69.72" cy="12.68" r="2.86"/>
      <circle class="cls-1" cx="80.9" cy="12.68" r="2.86"/>
      <path class="cls-1" d="m94.92,12.68c0,1.58-1.28,2.86-2.86,2.86s-2.86-1.28-2.86-2.86,1.28-2.86,2.86-2.86,2.86,1.28,2.86,2.86Z"/>
      <circle class="cls-1" cx="103.24" cy="12.68" r="2.86"/>
      <circle class="cls-1" cx="114.41" cy="12.68" r="2.86"/>
      <circle class="cls-1" cx="69.72" cy="22.5" r="2.86"/>
      <circle class="cls-1" cx="80.9" cy="22.5" r="2.86"/>
      <path class="cls-1" d="m94.92,22.5c0,1.58-1.28,2.86-2.86,2.86s-2.86-1.28-2.86-2.86,1.28-2.86,2.86-2.86,2.86,1.28,2.86,2.86Z"/>
      <circle class="cls-1" cx="103.24" cy="22.5" r="2.86"/>
      <circle class="cls-1" cx="114.41" cy="22.5" r="2.86"/>
      <path class="cls-1" d="m72.58,32.33c0,1.58-1.28,2.86-2.86,2.86s-2.86-1.28-2.86-2.86,1.28-2.86,2.86-2.86,2.86,1.28,2.86,2.86Z"/>
      <path class="cls-1" d="m83.75,32.33c0,1.58-1.28,2.86-2.86,2.86s-2.86-1.28-2.86-2.86,1.28-2.86,2.86-2.86,2.86,1.28,2.86,2.86Z"/>
      <path class="cls-1" d="m94.92,32.33c0,1.58-1.28,2.86-2.86,2.86s-2.86-1.28-2.86-2.86,1.28-2.86,2.86-2.86,2.86,1.28,2.86,2.86Z"/>
      <path class="cls-1" d="m106.1,32.33c0,1.58-1.28,2.86-2.86,2.86s-2.86-1.28-2.86-2.86,1.28-2.86,2.86-2.86,2.86,1.28,2.86,2.86Z"/>
      <path class="cls-1" d="m117.27,32.33c0,1.58-1.28,2.86-2.86,2.86s-2.86-1.28-2.86-2.86,1.28-2.86,2.86-2.86,2.86,1.28,2.86,2.86Z"/>
      <circle class="cls-1" cx="69.72" cy="42.15" r="2.86"/>
      <circle class="cls-1" cx="80.9" cy="42.15" r="2.86"/>
      <path class="cls-1" d="m94.92,42.15c0,1.58-1.28,2.86-2.86,2.86s-2.86-1.28-2.86-2.86,1.28-2.86,2.86-2.86,2.86,1.28,2.86,2.86Z"/>
      <circle class="cls-1" cx="103.24" cy="42.15" r="2.86"/>
      <circle class="cls-1" cx="114.41" cy="42.15" r="2.86"/>
      <circle class="cls-1" cx="69.72" cy="51.97" r="2.86"/>
      <circle class="cls-1" cx="80.9" cy="51.97" r="2.86"/>
      <path class="cls-1" d="m94.92,51.97c0,1.58-1.28,2.86-2.86,2.86s-2.86-1.28-2.86-2.86,1.28-2.86,2.86-2.86,2.86,1.28,2.86,2.86Z"/>
      <circle class="cls-1" cx="103.24" cy="51.97" r="2.86"/>
      <circle class="cls-1" cx="114.41" cy="51.97" r="2.86"/>
      <path class="cls-1" d="m72.58,61.8c0,1.58-1.28,2.86-2.86,2.86s-2.86-1.28-2.86-2.86,1.28-2.86,2.86-2.86,2.86,1.28,2.86,2.86Z"/>
      <path class="cls-1" d="m83.75,61.8c0,1.58-1.28,2.86-2.86,2.86s-2.86-1.28-2.86-2.86,1.28-2.86,2.86-2.86,2.86,1.28,2.86,2.86Z"/>
      <path class="cls-1" d="m94.92,61.8c0,1.58-1.28,2.86-2.86,2.86s-2.86-1.28-2.86-2.86,1.28-2.86,2.86-2.86,2.86,1.28,2.86,2.86Z"/>
      <path class="cls-1" d="m106.1,61.8c0,1.58-1.28,2.86-2.86,2.86s-2.86-1.28-2.86-2.86,1.28-2.86,2.86-2.86,2.86,1.28,2.86,2.86Z"/>
      <path class="cls-1" d="m117.27,61.8c0,1.58-1.28,2.86-2.86,2.86s-2.86-1.28-2.86-2.86,1.28-2.86,2.86-2.86,2.86,1.28,2.86,2.86Z"/>
      <circle class="cls-1" cx="69.72" cy="71.62" r="2.86"/>
      <circle class="cls-1" cx="80.9" cy="71.62" r="2.86"/>
      <path class="cls-1" d="m94.92,71.62c0,1.58-1.28,2.86-2.86,2.86s-2.86-1.28-2.86-2.86,1.28-2.86,2.86-2.86,2.86,1.28,2.86,2.86Z"/>
      <circle class="cls-1" cx="103.24" cy="71.62" r="2.86"/>
      <circle class="cls-1" cx="114.41" cy="71.62" r="2.86"/>
      <circle class="cls-1" cx="69.72" cy="81.44" r="2.86"/>
      <circle class="cls-1" cx="80.9" cy="81.44" r="2.86"/>
      <path class="cls-1" d="m94.92,81.44c0,1.58-1.28,2.86-2.86,2.86s-2.86-1.28-2.86-2.86,1.28-2.86,2.86-2.86,2.86,1.28,2.86,2.86Z"/>
      <circle class="cls-1" cx="103.24" cy="81.44" r="2.86"/>
      <circle class="cls-1" cx="114.41" cy="81.44" r="2.86"/>
      <path class="cls-1" d="m72.58,91.27c0,1.58-1.28,2.86-2.86,2.86s-2.86-1.28-2.86-2.86,1.28-2.86,2.86-2.86,2.86,1.28,2.86,2.86Z"/>
      <path class="cls-1" d="m83.75,91.27c0,1.58-1.28,2.86-2.86,2.86s-2.86-1.28-2.86-2.86,1.28-2.86,2.86-2.86,2.86,1.28,2.86,2.86Z"/>
      <path class="cls-1" d="m94.92,91.27c0,1.58-1.28,2.86-2.86,2.86s-2.86-1.28-2.86-2.86,1.28-2.86,2.86-2.86,2.86,1.28,2.86,2.86Z"/>
      <path class="cls-1" d="m106.1,91.27c0,1.58-1.28,2.86-2.86,2.86s-2.86-1.28-2.86-2.86,1.28-2.86,2.86-2.86,2.86,1.28,2.86,2.86Z"/>
      <path class="cls-1" d="m117.27,91.27c0,1.58-1.28,2.86-2.86,2.86s-2.86-1.28-2.86-2.86,1.28-2.86,2.86-2.86,2.86,1.28,2.86,2.86Z"/>
      <circle class="cls-1" cx="69.72" cy="101.09" r="2.86"/>
      <circle class="cls-1" cx="80.9" cy="101.09" r="2.86"/>
      <path class="cls-1" d="m94.92,101.09c0,1.58-1.28,2.86-2.86,2.86s-2.86-1.28-2.86-2.86,1.28-2.86,2.86-2.86,2.86,1.28,2.86,2.86Z"/>
      <circle class="cls-1" cx="103.24" cy="101.09" r="2.86"/>
      <circle class="cls-1" cx="114.41" cy="101.09" r="2.86"/>
    </g>
  </g>
</svg>