<?xml version="1.0" encoding="UTF-8"?>
<svg id="Capa_2" data-name="Capa 2" xmlns="http://www.w3.org/2000/svg" viewBox="0 0 165.8 117.59">
  <defs>
    <style>
      .cls-1 {
        fill: #8c15ff;
      }
    </style>
  </defs>
  <g id="Capa_1-2" data-name="Capa 1">
    <g>
      <path class="cls-1" d="m2.86,100.7c1.58,0,2.86,1.28,2.86,2.86s-1.28,2.86-2.86,2.86S0,105.14,0,103.56s1.28-2.86,2.86-2.86Z"/>
      <path class="cls-1" d="m2.86,89.53c1.58,0,2.86,1.28,2.86,2.86s-1.28,2.86-2.86,2.86S0,93.97,0,92.39s1.28-2.86,2.86-2.86Z"/>
      <path class="cls-1" d="m2.86,78.36c1.58,0,2.86,1.28,2.86,2.86s-1.28,2.86-2.86,2.86S0,82.8,0,81.22s1.28-2.86,2.86-2.86Z"/>
      <path class="cls-1" d="m2.86,67.19c1.58,0,2.86,1.28,2.86,2.86s-1.28,2.86-2.86,2.86S0,71.63,0,70.05s1.28-2.86,2.86-2.86Z"/>
      <path class="cls-1" d="m2.86,56.02c1.58,0,2.86,1.28,2.86,2.86s-1.28,2.86-2.86,2.86S0,60.46,0,58.88s1.28-2.86,2.86-2.86Z"/>
      <circle class="cls-1" cx="12.68" cy="114.73" r="2.86"/>
      <circle class="cls-1" cx="12.68" cy="103.56" r="2.86"/>
      <path class="cls-1" d="m12.68,89.53c1.58,0,2.86,1.28,2.86,2.86s-1.28,2.86-2.86,2.86-2.86-1.28-2.86-2.86,1.28-2.86,2.86-2.86Z"/>
      <circle class="cls-1" cx="12.68" cy="81.22" r="2.86"/>
      <circle class="cls-1" cx="12.68" cy="70.05" r="2.86"/>
      <circle class="cls-1" cx="12.68" cy="58.88" r="2.86"/>
      <circle class="cls-1" cx="22.5" cy="114.73" r="2.86"/>
      <circle class="cls-1" cx="22.5" cy="103.56" r="2.86"/>
      <path class="cls-1" d="m22.5,89.53c1.58,0,2.86,1.28,2.86,2.86s-1.28,2.86-2.86,2.86-2.86-1.28-2.86-2.86,1.28-2.86,2.86-2.86Z"/>
      <circle class="cls-1" cx="22.5" cy="81.22" r="2.86"/>
      <circle class="cls-1" cx="22.5" cy="70.05" r="2.86"/>
      <circle class="cls-1" cx="22.5" cy="58.88" r="2.86"/>
      <path class="cls-1" d="m32.33,111.87c1.58,0,2.86,1.28,2.86,2.86s-1.28,2.86-2.86,2.86-2.86-1.28-2.86-2.86,1.28-2.86,2.86-2.86Z"/>
      <path class="cls-1" d="m32.33,100.7c1.58,0,2.86,1.28,2.86,2.86s-1.28,2.86-2.86,2.86-2.86-1.28-2.86-2.86,1.28-2.86,2.86-2.86Z"/>
      <path class="cls-1" d="m32.33,89.53c1.58,0,2.86,1.28,2.86,2.86s-1.28,2.86-2.86,2.86-2.86-1.28-2.86-2.86,1.28-2.86,2.86-2.86Z"/>
      <path class="cls-1" d="m32.33,78.36c1.58,0,2.86,1.28,2.86,2.86s-1.28,2.86-2.86,2.86-2.86-1.28-2.86-2.86,1.28-2.86,2.86-2.86Z"/>
      <path class="cls-1" d="m32.33,67.19c1.58,0,2.86,1.28,2.86,2.86s-1.28,2.86-2.86,2.86-2.86-1.28-2.86-2.86,1.28-2.86,2.86-2.86Z"/>
      <path class="cls-1" d="m32.33,56.02c1.58,0,2.86,1.28,2.86,2.86s-1.28,2.86-2.86,2.86-2.86-1.28-2.86-2.86,1.28-2.86,2.86-2.86Z"/>
      <circle class="cls-1" cx="42.15" cy="114.73" r="2.86"/>
      <circle class="cls-1" cx="42.15" cy="103.56" r="2.86"/>
      <path class="cls-1" d="m42.15,89.53c1.58,0,2.86,1.28,2.86,2.86s-1.28,2.86-2.86,2.86-2.86-1.28-2.86-2.86,1.28-2.86,2.86-2.86Z"/>
      <circle class="cls-1" cx="42.15" cy="81.22" r="2.86"/>
      <circle class="cls-1" cx="42.15" cy="70.05" r="2.86"/>
      <circle class="cls-1" cx="42.15" cy="58.88" r="2.86"/>
      <circle class="cls-1" cx="51.97" cy="114.73" r="2.86"/>
      <circle class="cls-1" cx="51.97" cy="103.56" r="2.86"/>
      <path class="cls-1" d="m51.97,89.53c1.58,0,2.86,1.28,2.86,2.86s-1.28,2.86-2.86,2.86-2.86-1.28-2.86-2.86,1.28-2.86,2.86-2.86Z"/>
      <circle class="cls-1" cx="51.97" cy="81.22" r="2.86"/>
      <circle class="cls-1" cx="51.97" cy="70.05" r="2.86"/>
      <circle class="cls-1" cx="51.97" cy="58.88" r="2.86"/>
      <path class="cls-1" d="m61.8,111.87c1.58,0,2.86,1.28,2.86,2.86s-1.28,2.86-2.86,2.86-2.86-1.28-2.86-2.86,1.28-2.86,2.86-2.86Z"/>
      <path class="cls-1" d="m61.8,100.7c1.58,0,2.86,1.28,2.86,2.86s-1.28,2.86-2.86,2.86-2.86-1.28-2.86-2.86,1.28-2.86,2.86-2.86Z"/>
      <path class="cls-1" d="m61.8,89.53c1.58,0,2.86,1.28,2.86,2.86s-1.28,2.86-2.86,2.86-2.86-1.28-2.86-2.86,1.28-2.86,2.86-2.86Z"/>
      <path class="cls-1" d="m61.8,78.36c1.58,0,2.86,1.28,2.86,2.86s-1.28,2.86-2.86,2.86-2.86-1.28-2.86-2.86,1.28-2.86,2.86-2.86Z"/>
      <path class="cls-1" d="m61.8,67.19c1.58,0,2.86,1.28,2.86,2.86s-1.28,2.86-2.86,2.86-2.86-1.28-2.86-2.86,1.28-2.86,2.86-2.86Z"/>
      <path class="cls-1" d="m61.8,56.02c1.58,0,2.86,1.28,2.86,2.86s-1.28,2.86-2.86,2.86-2.86-1.28-2.86-2.86,1.28-2.86,2.86-2.86Z"/>
      <circle class="cls-1" cx="71.62" cy="114.73" r="2.86"/>
      <circle class="cls-1" cx="71.62" cy="103.56" r="2.86"/>
      <path class="cls-1" d="m71.62,89.53c1.58,0,2.86,1.28,2.86,2.86s-1.28,2.86-2.86,2.86-2.86-1.28-2.86-2.86,1.28-2.86,2.86-2.86Z"/>
      <circle class="cls-1" cx="71.62" cy="81.22" r="2.86"/>
      <circle class="cls-1" cx="71.62" cy="70.05" r="2.86"/>
      <circle class="cls-1" cx="71.62" cy="58.88" r="2.86"/>
      <circle class="cls-1" cx="81.44" cy="114.73" r="2.86"/>
      <circle class="cls-1" cx="81.44" cy="103.56" r="2.86"/>
      <path class="cls-1" d="m81.44,89.53c1.58,0,2.86,1.28,2.86,2.86s-1.28,2.86-2.86,2.86-2.86-1.28-2.86-2.86,1.28-2.86,2.86-2.86Z"/>
      <circle class="cls-1" cx="81.44" cy="81.22" r="2.86"/>
      <circle class="cls-1" cx="81.44" cy="70.05" r="2.86"/>
      <circle class="cls-1" cx="81.44" cy="58.88" r="2.86"/>
      <path class="cls-1" d="m91.27,111.87c1.58,0,2.86,1.28,2.86,2.86s-1.28,2.86-2.86,2.86-2.86-1.28-2.86-2.86,1.28-2.86,2.86-2.86Z"/>
      <path class="cls-1" d="m91.27,100.7c1.58,0,2.86,1.28,2.86,2.86s-1.28,2.86-2.86,2.86-2.86-1.28-2.86-2.86,1.28-2.86,2.86-2.86Z"/>
      <path class="cls-1" d="m91.27,89.53c1.58,0,2.86,1.28,2.86,2.86s-1.28,2.86-2.86,2.86-2.86-1.28-2.86-2.86,1.28-2.86,2.86-2.86Z"/>
      <path class="cls-1" d="m91.27,78.36c1.58,0,2.86,1.28,2.86,2.86s-1.28,2.86-2.86,2.86-2.86-1.28-2.86-2.86,1.28-2.86,2.86-2.86Z"/>
      <path class="cls-1" d="m91.27,67.19c1.58,0,2.86,1.28,2.86,2.86s-1.28,2.86-2.86,2.86-2.86-1.28-2.86-2.86,1.28-2.86,2.86-2.86Z"/>
      <path class="cls-1" d="m91.27,56.02c1.58,0,2.86,1.28,2.86,2.86s-1.28,2.86-2.86,2.86-2.86-1.28-2.86-2.86,1.28-2.86,2.86-2.86Z"/>
      <circle class="cls-1" cx="101.09" cy="114.73" r="2.86"/>
      <circle class="cls-1" cx="101.09" cy="103.56" r="2.86"/>
      <path class="cls-1" d="m101.09,89.53c1.58,0,2.86,1.28,2.86,2.86s-1.28,2.86-2.86,2.86-2.86-1.28-2.86-2.86,1.28-2.86,2.86-2.86Z"/>
      <circle class="cls-1" cx="101.09" cy="81.22" r="2.86"/>
      <circle class="cls-1" cx="101.09" cy="70.05" r="2.86"/>
      <circle class="cls-1" cx="101.09" cy="58.88" r="2.86"/>
      <path class="cls-1" d="m2.86,45.01c1.58,0,2.86,1.28,2.86,2.86s-1.28,2.86-2.86,2.86S0,49.45,0,47.87s1.28-2.86,2.86-2.86Z"/>
      <path class="cls-1" d="m2.86,33.84c1.58,0,2.86,1.28,2.86,2.86s-1.28,2.86-2.86,2.86S0,38.28,0,36.7s1.28-2.86,2.86-2.86Z"/>
      <path class="cls-1" d="m2.86,22.67c1.58,0,2.86,1.28,2.86,2.86s-1.28,2.86-2.86,2.86S0,27.1,0,25.53s1.28-2.86,2.86-2.86Z"/>
      <path class="cls-1" d="m2.86,11.5c1.58,0,2.86,1.28,2.86,2.86s-1.28,2.86-2.86,2.86S0,15.93,0,14.35s1.28-2.86,2.86-2.86Z"/>
      <circle class="cls-1" cx="12.68" cy="47.87" r="2.86"/>
      <circle class="cls-1" cx="12.68" cy="36.7" r="2.86"/>
      <path class="cls-1" d="m12.68,22.67c1.58,0,2.86,1.28,2.86,2.86s-1.28,2.86-2.86,2.86-2.86-1.28-2.86-2.86,1.28-2.86,2.86-2.86Z"/>
      <circle class="cls-1" cx="12.68" cy="14.35" r="2.86"/>
      <circle class="cls-1" cx="12.68" cy="3.18" r="2.86"/>
      <circle class="cls-1" cx="22.5" cy="47.87" r="2.86"/>
      <circle class="cls-1" cx="22.5" cy="36.7" r="2.86"/>
      <path class="cls-1" d="m22.5,22.67c1.58,0,2.86,1.28,2.86,2.86s-1.28,2.86-2.86,2.86-2.86-1.28-2.86-2.86,1.28-2.86,2.86-2.86Z"/>
      <circle class="cls-1" cx="22.5" cy="14.35" r="2.86"/>
      <circle class="cls-1" cx="22.5" cy="3.18" r="2.86"/>
      <path class="cls-1" d="m32.33,45.01c1.58,0,2.86,1.28,2.86,2.86s-1.28,2.86-2.86,2.86-2.86-1.28-2.86-2.86,1.28-2.86,2.86-2.86Z"/>
      <path class="cls-1" d="m32.33,33.84c1.58,0,2.86,1.28,2.86,2.86s-1.28,2.86-2.86,2.86-2.86-1.28-2.86-2.86,1.28-2.86,2.86-2.86Z"/>
      <path class="cls-1" d="m32.33,22.67c1.58,0,2.86,1.28,2.86,2.86s-1.28,2.86-2.86,2.86-2.86-1.28-2.86-2.86,1.28-2.86,2.86-2.86Z"/>
      <path class="cls-1" d="m32.33,11.5c1.58,0,2.86,1.28,2.86,2.86s-1.28,2.86-2.86,2.86-2.86-1.28-2.86-2.86,1.28-2.86,2.86-2.86Z"/>
      <path class="cls-1" d="m32.33.32c1.58,0,2.86,1.28,2.86,2.86s-1.28,2.86-2.86,2.86-2.86-1.28-2.86-2.86,1.28-2.86,2.86-2.86Z"/>
      <circle class="cls-1" cx="42.15" cy="47.87" r="2.86"/>
      <circle class="cls-1" cx="42.15" cy="36.7" r="2.86"/>
      <path class="cls-1" d="m42.15,22.67c1.58,0,2.86,1.28,2.86,2.86s-1.28,2.86-2.86,2.86-2.86-1.28-2.86-2.86,1.28-2.86,2.86-2.86Z"/>
      <circle class="cls-1" cx="42.15" cy="14.35" r="2.86"/>
      <circle class="cls-1" cx="42.15" cy="3.18" r="2.86"/>
      <circle class="cls-1" cx="51.97" cy="47.87" r="2.86"/>
      <circle class="cls-1" cx="51.97" cy="36.7" r="2.86"/>
      <path class="cls-1" d="m51.97,22.67c1.58,0,2.86,1.28,2.86,2.86s-1.28,2.86-2.86,2.86-2.86-1.28-2.86-2.86,1.28-2.86,2.86-2.86Z"/>
      <circle class="cls-1" cx="51.97" cy="14.35" r="2.86"/>
      <circle class="cls-1" cx="51.97" cy="3.18" r="2.86"/>
      <path class="cls-1" d="m61.8,45.01c1.58,0,2.86,1.28,2.86,2.86s-1.28,2.86-2.86,2.86-2.86-1.28-2.86-2.86,1.28-2.86,2.86-2.86Z"/>
      <path class="cls-1" d="m61.8,33.84c1.58,0,2.86,1.28,2.86,2.86s-1.28,2.86-2.86,2.86-2.86-1.28-2.86-2.86,1.28-2.86,2.86-2.86Z"/>
      <path class="cls-1" d="m61.8,22.67c1.58,0,2.86,1.28,2.86,2.86s-1.28,2.86-2.86,2.86-2.86-1.28-2.86-2.86,1.28-2.86,2.86-2.86Z"/>
      <path class="cls-1" d="m61.8,11.5c1.58,0,2.86,1.28,2.86,2.86s-1.28,2.86-2.86,2.86-2.86-1.28-2.86-2.86,1.28-2.86,2.86-2.86Z"/>
      <path class="cls-1" d="m61.8.32c1.58,0,2.86,1.28,2.86,2.86s-1.28,2.86-2.86,2.86-2.86-1.28-2.86-2.86,1.28-2.86,2.86-2.86Z"/>
      <circle class="cls-1" cx="71.62" cy="47.87" r="2.86"/>
      <circle class="cls-1" cx="71.62" cy="36.7" r="2.86"/>
      <path class="cls-1" d="m71.62,22.67c1.58,0,2.86,1.28,2.86,2.86s-1.28,2.86-2.86,2.86-2.86-1.28-2.86-2.86,1.28-2.86,2.86-2.86Z"/>
      <circle class="cls-1" cx="71.62" cy="14.35" r="2.86"/>
      <circle class="cls-1" cx="71.62" cy="3.18" r="2.86"/>
      <circle class="cls-1" cx="81.44" cy="47.87" r="2.86"/>
      <circle class="cls-1" cx="81.44" cy="36.7" r="2.86"/>
      <path class="cls-1" d="m81.44,22.67c1.58,0,2.86,1.28,2.86,2.86s-1.28,2.86-2.86,2.86-2.86-1.28-2.86-2.86,1.28-2.86,2.86-2.86Z"/>
      <circle class="cls-1" cx="81.44" cy="14.35" r="2.86"/>
      <circle class="cls-1" cx="81.44" cy="3.18" r="2.86"/>
      <path class="cls-1" d="m91.27,45.01c1.58,0,2.86,1.28,2.86,2.86s-1.28,2.86-2.86,2.86-2.86-1.28-2.86-2.86,1.28-2.86,2.86-2.86Z"/>
      <path class="cls-1" d="m91.27,33.84c1.58,0,2.86,1.28,2.86,2.86s-1.28,2.86-2.86,2.86-2.86-1.28-2.86-2.86,1.28-2.86,2.86-2.86Z"/>
      <path class="cls-1" d="m91.27,22.67c1.58,0,2.86,1.28,2.86,2.86s-1.28,2.86-2.86,2.86-2.86-1.28-2.86-2.86,1.28-2.86,2.86-2.86Z"/>
      <path class="cls-1" d="m91.27,11.5c1.58,0,2.86,1.28,2.86,2.86s-1.28,2.86-2.86,2.86-2.86-1.28-2.86-2.86,1.28-2.86,2.86-2.86Z"/>
      <path class="cls-1" d="m91.27.32c1.58,0,2.86,1.28,2.86,2.86s-1.28,2.86-2.86,2.86-2.86-1.28-2.86-2.86,1.28-2.86,2.86-2.86Z"/>
      <circle class="cls-1" cx="101.09" cy="47.87" r="2.86"/>
      <circle class="cls-1" cx="101.09" cy="36.7" r="2.86"/>
      <path class="cls-1" d="m101.09,22.67c1.58,0,2.86,1.28,2.86,2.86s-1.28,2.86-2.86,2.86-2.86-1.28-2.86-2.86,1.28-2.86,2.86-2.86Z"/>
      <circle class="cls-1" cx="101.09" cy="14.35" r="2.86"/>
      <circle class="cls-1" cx="101.09" cy="3.18" r="2.86"/>
      <circle class="cls-1" cx="111.21" cy="114.65" r="2.86"/>
      <circle class="cls-1" cx="111.21" cy="103.48" r="2.86"/>
      <path class="cls-1" d="m111.21,89.45c1.58,0,2.86,1.28,2.86,2.86s-1.28,2.86-2.86,2.86-2.86-1.28-2.86-2.86,1.28-2.86,2.86-2.86Z"/>
      <circle class="cls-1" cx="111.21" cy="81.14" r="2.86"/>
      <circle class="cls-1" cx="111.21" cy="69.97" r="2.86"/>
      <circle class="cls-1" cx="111.21" cy="58.8" r="2.86"/>
      <circle class="cls-1" cx="111.21" cy="47.79" r="2.86"/>
      <circle class="cls-1" cx="111.21" cy="36.62" r="2.86"/>
      <path class="cls-1" d="m111.21,22.59c1.58,0,2.86,1.28,2.86,2.86s-1.28,2.86-2.86,2.86-2.86-1.28-2.86-2.86,1.28-2.86,2.86-2.86Z"/>
      <circle class="cls-1" cx="111.21" cy="14.27" r="2.86"/>
      <circle class="cls-1" cx="111.21" cy="3.1" r="2.86"/>
      <circle class="cls-1" cx="121.34" cy="114.57" r="2.86"/>
      <circle class="cls-1" cx="121.34" cy="103.4" r="2.86"/>
      <path class="cls-1" d="m121.34,89.37c1.58,0,2.86,1.28,2.86,2.86s-1.28,2.86-2.86,2.86-2.86-1.28-2.86-2.86,1.28-2.86,2.86-2.86Z"/>
      <circle class="cls-1" cx="121.34" cy="81.06" r="2.86"/>
      <circle class="cls-1" cx="121.34" cy="69.89" r="2.86"/>
      <circle class="cls-1" cx="121.34" cy="58.71" r="2.86"/>
      <circle class="cls-1" cx="121.34" cy="47.71" r="2.86"/>
      <circle class="cls-1" cx="121.34" cy="36.53" r="2.86"/>
      <path class="cls-1" d="m121.34,22.5c1.58,0,2.86,1.28,2.86,2.86s-1.28,2.86-2.86,2.86-2.86-1.28-2.86-2.86,1.28-2.86,2.86-2.86Z"/>
      <circle class="cls-1" cx="121.34" cy="14.19" r="2.86"/>
      <circle class="cls-1" cx="121.34" cy="3.02" r="2.86"/>
      <circle class="cls-1" cx="131.55" cy="114.49" r="2.86"/>
      <circle class="cls-1" cx="131.55" cy="103.32" r="2.86"/>
      <path class="cls-1" d="m131.55,89.29c1.58,0,2.86,1.28,2.86,2.86s-1.28,2.86-2.86,2.86-2.86-1.28-2.86-2.86,1.28-2.86,2.86-2.86Z"/>
      <circle class="cls-1" cx="131.55" cy="80.98" r="2.86"/>
      <circle class="cls-1" cx="131.55" cy="69.81" r="2.86"/>
      <circle class="cls-1" cx="131.55" cy="58.63" r="2.86"/>
      <circle class="cls-1" cx="131.55" cy="47.62" r="2.86"/>
      <circle class="cls-1" cx="131.55" cy="36.45" r="2.86"/>
      <path class="cls-1" d="m131.55,22.42c1.58,0,2.86,1.28,2.86,2.86s-1.28,2.86-2.86,2.86-2.86-1.28-2.86-2.86,1.28-2.86,2.86-2.86Z"/>
      <circle class="cls-1" cx="131.55" cy="14.11" r="2.86"/>
      <circle class="cls-1" cx="131.55" cy="2.94" r="2.86"/>
      <circle class="cls-1" cx="142.05" cy="114.57" r="2.86"/>
      <circle class="cls-1" cx="142.05" cy="103.4" r="2.86"/>
      <path class="cls-1" d="m142.05,89.37c1.58,0,2.86,1.28,2.86,2.86s-1.28,2.86-2.86,2.86-2.86-1.28-2.86-2.86,1.28-2.86,2.86-2.86Z"/>
      <circle class="cls-1" cx="142.05" cy="81.06" r="2.86"/>
      <circle class="cls-1" cx="142.05" cy="69.89" r="2.86"/>
      <circle class="cls-1" cx="142.05" cy="58.71" r="2.86"/>
      <circle class="cls-1" cx="142.05" cy="47.71" r="2.86"/>
      <circle class="cls-1" cx="142.05" cy="36.53" r="2.86"/>
      <path class="cls-1" d="m142.05,22.5c1.58,0,2.86,1.28,2.86,2.86s-1.28,2.86-2.86,2.86-2.86-1.28-2.86-2.86,1.28-2.86,2.86-2.86Z"/>
      <circle class="cls-1" cx="142.05" cy="14.19" r="2.86"/>
      <circle class="cls-1" cx="142.05" cy="3.02" r="2.86"/>
      <circle class="cls-1" cx="152.55" cy="114.41" r="2.86"/>
      <circle class="cls-1" cx="152.55" cy="103.24" r="2.86"/>
      <path class="cls-1" d="m152.55,89.21c1.58,0,2.86,1.28,2.86,2.86s-1.28,2.86-2.86,2.86-2.86-1.28-2.86-2.86,1.28-2.86,2.86-2.86Z"/>
      <circle class="cls-1" cx="152.55" cy="80.9" r="2.86"/>
      <circle class="cls-1" cx="152.55" cy="69.72" r="2.86"/>
      <circle class="cls-1" cx="152.55" cy="58.55" r="2.86"/>
      <circle class="cls-1" cx="152.55" cy="47.54" r="2.86"/>
      <circle class="cls-1" cx="152.55" cy="36.37" r="2.86"/>
      <path class="cls-1" d="m152.55,22.34c1.58,0,2.86,1.28,2.86,2.86s-1.28,2.86-2.86,2.86-2.86-1.28-2.86-2.86,1.28-2.86,2.86-2.86Z"/>
      <circle class="cls-1" cx="152.55" cy="14.03" r="2.86"/>
      <circle class="cls-1" cx="152.55" cy="2.86" r="2.86"/>
      <circle class="cls-1" cx="162.94" cy="103.16" r="2.86"/>
      <path class="cls-1" d="m162.94,89.13c1.58,0,2.86,1.28,2.86,2.86s-1.28,2.86-2.86,2.86-2.86-1.28-2.86-2.86,1.28-2.86,2.86-2.86Z"/>
      <circle class="cls-1" cx="162.94" cy="80.81" r="2.86"/>
      <circle class="cls-1" cx="162.94" cy="69.64" r="2.86"/>
      <circle class="cls-1" cx="162.94" cy="58.47" r="2.86"/>
      <circle class="cls-1" cx="162.94" cy="47.46" r="2.86"/>
      <circle class="cls-1" cx="162.94" cy="36.29" r="2.86"/>
      <path class="cls-1" d="m162.94,22.26c1.58,0,2.86,1.28,2.86,2.86s-1.28,2.86-2.86,2.86-2.86-1.28-2.86-2.86,1.28-2.86,2.86-2.86Z"/>
      <circle class="cls-1" cx="162.94" cy="13.95" r="2.86"/>
    </g>
  </g>
</svg>