<?xml version="1.0" encoding="UTF-8"?>
<svg id="Capa_2" data-name="Capa 2" xmlns="http://www.w3.org/2000/svg" viewBox="0 0 182.84 48.94">
  <defs>
    <style>
      .cls-1 {
        fill: #8c15ff;
      }
    </style>
  </defs>
  <g id="Capa_1-2" data-name="Capa 1">
    <path class="cls-1" d="m182.66,8.05c-.65,2.96-3.78,5.18-6.1,5.18-.02,0-.04,0-.06-.01-5.47.1-9.17,1.8-11.64,5.34-2.42,3.48-4.68,7.2-6.86,10.79-1.45,2.37-2.94,4.82-4.48,7.2-3.99,6.2-9.03,10.02-15.4,11.7-4.06,1.06-8.24.59-12.78-1.44-4.62-2.07-8.46-5.75-11.74-11.23-.93-1.57-1.84-3.17-2.75-4.76-1.84-3.23-3.74-6.57-5.87-9.63-3.21-4.63-6.77-6.98-11.21-7.4-6.51-.62-10.9,1.02-13.81,5.15-3.2,4.56-6.04,9.28-8.91,14.11-3.26,5.51-7.37,11.62-14.85,14.49-2.42.93-4.85,1.4-7.26,1.4-2.15,0-4.29-.37-6.4-1.11-5.04-1.75-9-4.82-11.79-9.12-1.82-2.81-3.52-5.73-5.18-8.55-.99-1.7-1.99-3.4-3.01-5.09-2.66-4.37-5.21-7.21-8.28-9.22-2.06-1.35-4.55-1.66-7.19-1.99l-.66-.09c-3.16-.4-5.43-2.06-6.06-4.43C-.81,4.92,1.06,2.75,2.85,1.71,6.24-.27,9.87.47,12.28.95c8.36,1.68,14.95,6.62,20.16,15.09,1.01,1.64,1.95,3.34,2.87,4.97,1.23,2.23,2.51,4.53,3.93,6.64,1.44,2.14,3.34,4.3,5.98,6.8,1.4,1.32,3.42,1.1,5.91.68,2.38-.41,4.16-1.9,6.13-5.15,1.42-2.35,2.81-4.78,4.15-7.14,1.24-2.17,2.52-4.41,3.84-6.6,3.87-6.46,8.05-10.54,13.16-12.85,3.76-1.69,7.67-2.79,11.31-3.16,7.62-.8,14.64,1.66,20.87,7.28,3.97,3.58,6.58,8.04,9.1,12.35l.66,1.12c.61,1.04,1.19,2.11,1.77,3.18,1.93,3.55,3.76,6.9,6.76,9.29.88.69,2.37,1.22,4.31,1.51,1.36.2,2.84.06,3.88-.38,1.21-.51,2.43-1.48,3.18-2.53,2.21-3.12,4.36-6.53,6.39-10.15l.13-.23c2.83-5.03,5.75-10.24,10.32-14.35C162.42,2.53,168.45.06,175.01,0c2.83-.02,5.09.9,6.48,2.62,1.2,1.47,1.62,3.4,1.17,5.43Z"/>
  </g>
</svg>