<?xml version="1.0" encoding="UTF-8"?>
<svg id="Capa_2" data-name="Capa 2" xmlns="http://www.w3.org/2000/svg" viewBox="0 0 170.05 189.41">
  <defs>
    <style>
      .cls-1 {
        fill: #8c15ff;
      }
    </style>
  </defs>
  <g id="Capa_1-2" data-name="Capa 1">
    <path class="cls-1" d="m161.89,97.52c-9.07-11.58-13.09-26.18-12.55-40.87.02-.67.04-1.34.04-2.01C149.37,24.46,124.91,0,94.74,0c-25.48,0-47.92,17.99-53.39,42.7-2.79,12.63-9.83,23.91-19.48,32.52C8.02,87.58-.53,105.72.03,125.86c.95,34.33,28.83,62.37,63.16,63.51,17.35.57,33.24-5.62,45.26-16.13,8.46-7.4,18.8-12.14,29.87-14.07,18.15-3.16,31.74-19.5,31.74-37.97,0-8.94-3.05-17.16-8.16-23.68Z"/>
  </g>
</svg>