<?xml version="1.0" encoding="UTF-8"?>
<svg id="Capa_1" data-name="Capa 1" xmlns="http://www.w3.org/2000/svg" viewBox="0 0 588.78 423.46">
  <defs>
    <style>
      .cls-1, .cls-2 {
        fill: #fff;
      }

      .cls-3 {
        fill: #fafafa;
      }

      .cls-4 {
        fill: #f5f5f5;
      }

      .cls-5 {
        fill: #455a64;
      }

      .cls-2, .cls-6 {
        isolation: isolate;
        opacity: .3;
      }

      .cls-7 {
        fill: #e0e0e0;
      }

      .cls-8 {
        fill: #8c15ff;
      }

      .cls-9 {
        fill: #995037;
      }

      .cls-10 {
        opacity: .2;
      }

      .cls-11 {
        fill: #263238;
      }

      .cls-12 {
        fill: #b77153;
      }
    </style>
  </defs>
  <g id="freepik--background-complete--inject-2">
    <path class="cls-4" d="m382.1,159.22v44.09c.14,7.87,6.58,14.17,14.45,14.14h158.07c7.98.02,14.46-6.44,14.48-14.42v-37.29l19.68-20.68-192.21-.6c-8.02.03-14.5,6.55-14.47,14.57,0,.06,0,.13,0,.19Z"/>
    <polygon class="cls-7" points="545.76 171.18 402.27 170.51 402.29 166.1 545.77 166.77 545.76 171.18"/>
    <polygon class="cls-7" points="545.76 185.69 402.27 185.02 402.29 180.61 545.77 181.28 545.76 185.69"/>
    <rect class="cls-7" x="515.16" y="169.1" width="4.41" height="56.77" transform="translate(317.35 713.88) rotate(-89.72)"/>
    <g>
      <path class="cls-4" d="m469.72,384.01c13.56,4.94,26.2,3.63,39.84-1.06s25.71-13.63,35.13-24.69c2.7-3.16,5.24-6.57,6.49-10.57s1.03-8.66-1.44-12c-3.77-5.09-11.36-5.49-17.24-3.27-3.15,1.18-6.09,2.95-9.39,3.58s-7.24-.36-8.77-3.37,0-6.86,2.54-9.07,5.86-3.22,9-4.37c8.82-3.24,17.01-7.98,24.22-14,3.6-3,7.26-7.63,5.5-12-1.21-3.13-4.87-4.61-8.21-5s-6.81-.06-10-1.12c-2.81-.94-5.51-3.77-4.59-6.63.52-1.57,1.98-2.57,3.33-3.57,7.51-5.34,14.21-11.74,19.89-19,3.79-4.85,7.33-10.98,5.79-17s-8.07-9.81-14.2-9.46c-6.13.35-11.67,4.09-15.68,8.8s-6.73,10.37-9.53,15.91c-2.8,5.54-5.79,11.1-10.21,15.42-1.28,1.29-3.01,2.5-4.7,2s-2.5-2.46-2.63-4.24.23-3.59-.13-5.33c-.9-4.19-5.93-6.56-10-5.39s-7.05,4.94-8.34,9-1.29,8.43-1.29,12.71l.15,23.92c.02,4.28-.41,9.41-4.13,11.46-2.7,1.49-6.09.62-8.83-.8-4.21-2.2-7.7-5.54-10.09-9.64-1.79-3.07-3.18-6.79-6.37-8.29-3.86-1.82-8.64.77-10.68,4.54s-1.57,8.31-1.72,12.61c-.87,25.78,4.14,54.45,26.25,69.9"/>
      <path class="cls-7" d="m469.92,403.13c1.27-11.9,3.66-23.66,7.13-35.11,4.31-14,9.4-27.75,15.25-41.18l4.54-10.61c1.5-3.49,2.97-6.91,4.62-10.18,3.18-6.28,6.71-12.39,10.56-18.29,3.64-5.67,7.3-10.92,10.76-15.81s6.77-9.34,9.95-13.34c5-6.28,10.47-12.18,16.35-17.64,2.07-1.94,3.73-3.39,4.85-4.39l1.27-1.14c.15-.12.28-.26.41-.4-.16.1-.32.21-.46.34l-1.35,1.09c-1.2.95-2.89,2.38-5,4.29-5.98,5.39-11.52,11.24-16.57,17.51-3.17,3.96-6.51,8.43-10,13.31s-7.17,10.13-10.84,15.8c-3.88,5.91-7.43,12.03-10.63,18.33-1.65,3.29-3.15,6.74-4.65,10.22-1.5,3.49-3.01,7.03-4.54,10.62-5.86,13.46-10.95,27.24-15.22,41.28-3.46,11.5-5.8,23.31-7,35.26"/>
      <path class="cls-7" d="m500.86,303.89c-.14-1.36-.33-3.06-.54-5.06l-1.69-16.7c-.67-6.54-1.48-12.44-2.29-16.67-.4-2.13-.77-3.84-1.07-5-.11-.61-.3-1.21-.54-1.79.01.62.09,1.24.24,1.85.21,1.17.49,2.88.82,5,.67,4.24,1.38,10.13,2.06,16.65s1.31,12.43,1.92,16.69c.3,2.09.56,3.82.79,5,.07.62.21,1.23.42,1.82.02-.6-.02-1.2-.12-1.79Z"/>
      <path class="cls-7" d="m553.69,295.37c-1.41.02-3.47.11-6,.33-6.6.58-13.16,1.5-19.66,2.75-7.63,1.45-14.46,3.15-19.33,4.59-2.45.71-4.4,1.36-5.75,1.83-.69.21-1.36.49-2,.82.73-.11,1.44-.28,2.14-.52,1.37-.39,3.35-.95,5.8-1.59,4.9-1.3,11.75-2.89,19.33-4.35s14.58-2.45,19.58-3c2.54-.29,4.59-.46,6-.59.74-.01,1.47-.1,2.19-.26-.76-.08-1.53-.08-2.3,0Z"/>
      <path class="cls-7" d="m476.78,366.15c-.22-.55-.48-1.23-.8-2.05-.75-1.88-1.76-4.42-3-7.51-2.52-6.38-5.83-15.21-9.44-25-3.61-9.79-7-18.61-9.66-24.91-1.32-3.16-2.43-5.69-3.24-7.43-.37-.81-.68-1.47-.94-2-.09-.24-.22-.47-.37-.68.03.26.11.51.23.74.22.5.48,1.18.8,2l3,7.51c2.52,6.37,5.83,15.22,9.44,25s7,18.6,9.66,24.9c1.32,3.16,2.43,5.69,3.24,7.43.37.8.68,1.46.94,2,.1.24.22.46.37.67-.04-.23-.12-.46-.23-.67Z"/>
      <path class="cls-7" d="m549.35,343.38l-2.14.59c-1.9.5-4.58,1.29-7.9,2.29-6.66,2.01-15.8,5-25.84,8.4-10.04,3.4-19.14,6.47-25.75,8.61l-7.83,2.54-2.12.71c-.26.07-.5.17-.73.3.26-.02.52-.07.77-.15l2.17-.57c1.9-.5,4.58-1.29,7.9-2.29,6.66-2.01,15.79-5,25.84-8.4s19.14-6.46,25.75-8.61l7.83-2.53,2.12-.72c.25-.07.5-.17.73-.29-.27,0-.54.04-.8.12Z"/>
    </g>
    <path class="cls-7" d="m163.58,113.59v34.17c0,6.18-5.01,11.19-11.19,11.2H29.87c-6.18,0-11.19-5.02-11.19-11.2v-28.87l-15.25-16,148.93-.51c6.18-.02,11.2,4.98,11.22,11.16,0,.02,0,.03,0,.05Z"/>
    <polygon class="cls-3" points="36.74 123.1 147.92 122.59 147.91 119.17 36.73 119.68 36.74 123.1"/>
    <polygon class="cls-3" points="36.74 134.34 147.92 133.83 147.91 130.41 36.73 130.93 36.74 134.34"/>
    <rect class="cls-3" x="36.72" y="141.79" width="43.99" height="3.42" transform="translate(-.7 .29) rotate(-.28)"/>
  </g>
  <g id="freepik--Character--inject-2">
    <rect class="cls-11" x="103.55" y="165.1" width="370.4" height="258.1" rx="11.55" ry="11.55"/>
    <rect class="cls-1" x="128.89" y="173.24" width="309.33" height="241.83"/>
    <circle class="cls-5" cx="455.37" cy="294.19" r="9.9" transform="translate(64.77 670.14) rotate(-76.77)"/>
    <rect class="cls-5" x="114.21" y="255.28" width="4.09" height="77.74" rx="1.22" ry="1.22"/>
    <circle class="cls-8" cx="195.76" cy="301.39" r="24.99"/>
    <circle class="cls-2" cx="195.76" cy="301.39" r="24.99"/>
    <path class="cls-11" d="m187.1,295.12c.94-.08,1.8,1,1.92,2.34s-.57,2.53-1.52,2.61-1.8-1-1.91-2.33.6-2.54,1.51-2.62Z"/>
    <path class="cls-11" d="m203.02,294.79c-.94,0-1.76,1-1.82,2.42s.67,2.51,1.62,2.55,1.77-1,1.82-2.41-.67-2.52-1.62-2.56Z"/>
    <path class="cls-11" d="m205.75,306.38c0,.29-4.66.53-10.4.53s-10.41-.24-10.41-.53,4.66-.54,10.41-.54,10.4.23,10.4.54Z"/>
    <path class="cls-11" d="m189.1,292.25c-.06.3-1.25.29-2.64.51s-2.52.58-2.67.32.9-1.12,2.51-1.37,2.8.26,2.8.54Z"/>
    <path class="cls-11" d="m207.53,293.46c-.18.24-1.26-.32-2.65-.74s-2.59-.57-2.62-.88,1.33-.64,2.93-.14,2.53,1.55,2.34,1.76Z"/>
    <circle class="cls-8" cx="376.69" cy="299.36" r="25.9"/>
    <circle class="cls-6" cx="376.69" cy="299.36" r="25.9"/>
    <path class="cls-11" d="m367.73,292.82c1-.08,1.88,1,2,2.42s-.58,2.63-1.56,2.71-1.88-1-2-2.42.58-2.63,1.56-2.71Z"/>
    <path class="cls-11" d="m384.2,292.48c-1,0-1.83,1.08-1.89,2.5s.7,2.6,1.68,2.64,1.83-1.08,1.89-2.5-.69-2.6-1.68-2.64Z"/>
    <path class="cls-11" d="m387.03,304.48c-.11.14-1.19-.63-3-1.58-2.38-1.24-5.02-1.89-7.71-1.9-2.69.12-5.32.8-7.73,2-1.88.92-3,1.62-3.09,1.48s.89-1,2.74-2.14c2.44-1.47,5.21-2.3,8.06-2.41,2.86,0,5.67.79,8.1,2.31,1.79,1.14,2.7,2.14,2.63,2.24Z"/>
    <path class="cls-11" d="m369.71,289.84c.09.11-.08.44-.51.81-.56.51-1.26.85-2,1-.76.14-1.54.06-2.25-.25-.53-.24-.77-.52-.71-.65s1.35.13,2.77-.15,2.51-1,2.7-.76Z"/>
    <path class="cls-11" d="m388.88,291.1c0,.13-.24.38-.82.56-.76.22-1.57.19-2.32-.08-.73-.26-1.39-.69-1.91-1.27-.38-.44-.52-.79-.42-.89s1.27.66,2.67,1.15,2.7.23,2.8.53Z"/>
    <polygon class="cls-7" points="327.03 371.24 333.03 368.27 338.89 371.53 337.91 364.9 342.82 360.34 336.21 359.22 333.39 353.14 330.29 359.08 323.64 359.88 328.32 364.67 327.03 371.24"/>
    <polygon class="cls-8" points="302.55 371.24 308.55 368.27 314.41 371.53 313.43 364.9 318.34 360.34 311.73 359.22 308.91 353.14 305.81 359.08 299.16 359.88 303.84 364.67 302.55 371.24"/>
    <polygon class="cls-8" points="278.07 371.24 284.07 368.27 289.92 371.53 288.95 364.9 293.86 360.34 287.25 359.22 284.43 353.14 281.33 359.08 274.68 359.88 279.36 364.67 278.07 371.24"/>
    <polygon class="cls-8" points="253.59 371.24 259.59 368.27 265.44 371.53 264.47 364.9 269.38 360.34 262.77 359.22 259.95 353.14 256.85 359.08 250.2 359.88 254.88 364.67 253.59 371.24"/>
    <polygon class="cls-8" points="229.11 371.24 235.11 368.27 240.96 371.53 239.99 364.9 244.9 360.34 238.29 359.22 235.47 353.14 232.37 359.08 225.72 359.88 230.4 364.67 229.11 371.24"/>
    <path class="cls-11" d="m343.1,223.89c0,.15-26.86.27-60,.27s-60-.12-60-.27,26.85-.26,60-.26,60,.12,60,.26Z"/>
    <path class="cls-11" d="m313.6,216.69c0,.15-13.26.27-29.62.27s-29.63-.12-29.63-.27,13.26-.27,29.63-.27,29.62.12,29.62.27Z"/>
    <circle class="cls-8" cx="288.26" cy="293.41" r="34.12"/>
    <path class="cls-11" d="m276.46,284.78c1.29-.1,2.46,1.32,2.62,3.19s-.77,3.46-2.06,3.57-2.47-1.32-2.62-3.18.77-3.47,2.06-3.58Z"/>
    <path class="cls-11" d="m298.15,284.38c-1.29-.06-2.41,1.42-2.48,3.29s.91,3.43,2.2,3.48,2.41-1.42,2.49-3.29-.91-3.48-2.21-3.48Z"/>
    <path class="cls-11" d="m301.87,295.53c.06.06-.22.41-.77,1-.78.84-1.64,1.62-2.56,2.31-1.38,1.03-2.9,1.86-4.51,2.47-2,.75-4.13,1.09-6.26,1-2.12-.11-4.2-.59-6.15-1.42-1.58-.64-3.1-1.43-4.53-2.37-2.42-1.62-3.7-2.88-3.63-3s1.56.9,4,2.32c1.44.82,2.94,1.52,4.49,2.11,1.87.73,3.85,1.16,5.85,1.27,2,.08,3.99-.2,5.88-.85,1.55-.54,3.03-1.26,4.41-2.16,1.16-.8,2.1-1.47,2.71-2s1.02-.73,1.07-.68Z"/>
    <path class="cls-11" d="m278,277.11c-.06.3-1.69.19-3.63.5s-3.46.9-3.61.63,1.29-1.35,3.45-1.68,3.89.27,3.79.55Z"/>
    <path class="cls-11" d="m305.47,278.7c-.19.24-1.63-.62-3.57-1.2s-3.61-.7-3.62-1,1.79-.68,3.94,0,3.44,1.99,3.25,2.2Z"/>
    <path class="cls-11" d="m274.02,293.08c.13,0,.35.33.38,1,.02.85-.24,1.67-.74,2.36-.49.7-1.19,1.22-2,1.48-.62.18-1,.09-1.05,0,0-.3,1.26-.74,2.16-2.06s.95-2.73,1.25-2.78Z"/>
    <path class="cls-11" d="m304.76,296.22c0,.13-.26.34-.79.38-.7.03-1.38-.18-1.94-.6-.57-.41-.98-1.01-1.15-1.69-.11-.52,0-.85.14-.86.3,0,.64,1,1.64,1.69s2.03.78,2.1,1.08Z"/>
    <path class="cls-8" d="m329.95,293.08s0-.23-.06-.69l-.13-2c0-.44-.05-.94-.08-1.48s-.18-1.13-.27-1.77-.21-1.33-.33-2.06c-.14-.78-.33-1.56-.55-2.32-.99-3.96-2.58-7.75-4.7-11.24-2.77-4.65-6.42-8.73-10.73-12l-1.83-1.35c-.64-.42-1.31-.81-2-1.22s-1.33-.86-2.06-1.19l-2.19-1.05-1.11-.53-1.17-.42-2.38-.87c-.8-.27-1.65-.44-2.48-.66-.84-.25-1.69-.44-2.55-.58-1.76-.33-3.54-.54-5.33-.62-.91,0-1.83-.12-2.75-.1l-2.79.14c-.47,0-.94,0-1.41.09l-1.41.22c-.93.15-1.89.26-2.83.46-1.91.42-3.79.97-5.62,1.65-1.89.68-3.72,1.48-5.5,2.41-.89.49-1.74,1.05-2.62,1.57-.43.28-.89.51-1.3.82l-1.24.93c-1.68,1.25-3.28,2.6-4.78,4.06l-2.14,2.36-.54.6-.49.64-1,1.29-1,1.29-.85,1.39-.85,1.4-.42.7-.36.73-1.43,3-1.14,3.12c-2.9,8.63-2.9,17.96,0,26.59.39,1,.77,2.08,1.15,3.12s.95,2,1.43,3l.36.74.42.7.85,1.39.85,1.39,1,1.3,1,1.29.48.64.54.59,2.14,2.36c1.5,1.46,3.1,2.82,4.78,4.07l1.25.92c.41.32.87.55,1.3.83.88.52,1.73,1.08,2.62,1.57,3.52,1.82,7.26,3.19,11.12,4.06.94.2,1.9.31,2.84.46l1.4.22c.47.06.94.06,1.41.09l2.79.14c.92,0,1.84-.07,2.75-.1,1.79-.08,3.57-.29,5.33-.62.86-.14,1.71-.33,2.55-.58.84-.22,1.68-.4,2.49-.66l2.37-.87,1.17-.42,1.11-.53,2.19-1.05c.71-.36,1.39-.76,2.06-1.19.67-.41,1.35-.8,2-1.22l1.82-1.36c4.32-3.27,7.96-7.35,10.74-12,2.12-3.51,3.71-7.31,4.69-11.29.22-.76.41-1.53.55-2.31.12-.73.23-1.42.33-2.06s.21-1.23.27-1.77.06-1,.08-1.48c.06-.87.1-1.54.13-2s.06-.69.06-.69v.69c0,.46-.05,1.14-.08,2,0,.45,0,1-.06,1.49s-.16,1.14-.24,1.78-.2,1.34-.31,2.08c-.14.78-.31,1.56-.53,2.32-.95,4.01-2.51,7.84-4.63,11.37-2.77,4.7-6.42,8.81-10.76,12.12l-1.84,1.38c-.64.43-1.32.82-2,1.24s-1.34.87-2.08,1.2l-2.2,1.07-1.12.57-1.18.43-2.39.88c-.82.28-1.67.45-2.51.68-.85.25-1.71.45-2.58.6-1.78.33-3.58.54-5.39.63-.91,0-1.84.13-2.77.12l-2.82-.14c-.48,0-1,0-1.43-.09l-1.42-.22c-.95-.15-1.92-.26-2.87-.46-1.93-.43-3.83-.98-5.69-1.66-1.91-.68-3.76-1.5-5.56-2.43-.91-.49-1.77-1.06-2.66-1.59-.46-.25-.9-.53-1.32-.83l-1.26-.94c-1.7-1.26-3.32-2.63-4.84-4.1l-2.17-2.39-.55-.6-.49-.65-1-1.3-1-1.32-.86-1.4-.86-1.41-.43-.71-.36-.75-1.45-3c-.39-1.05-.77-2.11-1.16-3.16-2.93-8.73-2.93-18.19,0-26.92l1.16-3.16,1.45-3,.37-.75.43-.71.86-1.41.86-1.4,1-1.31,1-1.31.49-.65.54-.6c.73-.79,1.45-1.59,2.17-2.38,1.52-1.47,3.14-2.85,4.84-4.11l1.26-.94c.42-.31.88-.55,1.32-.83.89-.52,1.76-1.09,2.66-1.58,1.8-.93,3.65-1.75,5.56-2.43,1.86-.68,3.76-1.23,5.69-1.66.95-.2,1.92-.31,2.87-.46l1.42-.22c.47-.06.95-.06,1.42-.09l2.82-.14c.94,0,1.86.08,2.78.12,1.81.09,3.61.3,5.39.63.87.15,1.73.35,2.58.59.84.24,1.69.41,2.5.68l2.4.88,1.18.44,1.12.54,2.21,1.06c.74.34,1.39.82,2.07,1.21s1.36.81,2,1.24l1.84,1.38c4.33,3.3,7.99,7.41,10.76,12.1,2.12,3.52,3.68,7.35,4.64,11.34.18.83.45,1.59.53,2.33s.21,1.43.31,2.08.19,1.23.24,1.78,0,1,.06,1.48c0,.88.06,1.55.08,2s0,.69,0,.69Z"/>
    <rect class="cls-7" x="128.89" y="173.24" width="309.33" height="15.43"/>
    <path class="cls-1" d="m138.87,180.53c0,1.15-.94,2.09-2.09,2.09-1.15,0-2.09-.94-2.09-2.09,0-1.15.94-2.09,2.09-2.09h0c1.15,0,2.09.94,2.09,2.09Z"/>
    <path class="cls-1" d="m145.81,180.53c0,1.15-.94,2.09-2.09,2.09-1.15,0-2.09-.94-2.09-2.09,0-1.15.94-2.09,2.09-2.09h0c1.15,0,2.09.94,2.09,2.09Z"/>
    <path class="cls-1" d="m152.76,180.53c0,1.15-.94,2.09-2.09,2.09-1.15,0-2.09-.94-2.09-2.09,0-1.15.94-2.09,2.09-2.09h0c1.15,0,2.08.94,2.09,2.09Z"/>
    <path class="cls-7" d="m404.1,236.06c0,.15-53.67.27-119.87.27s-119.88-.12-119.88-.27,53.67-.26,119.88-.26,119.87.12,119.87.26Z"/>
    <path class="cls-7" d="m404.1,242.01c0,.14-53.67.26-119.87.26s-119.88-.12-119.88-.26,53.67-.27,119.88-.27,119.87.12,119.87.27Z"/>
    <path class="cls-5" d="m246.8,166.73s-2.11-4.79-2.51-5.84c-1.07-2.87-8-22.1-6.33-25,7.67-13.47,13.62-23,28.75-23l26.73-.18s25.32-5.16,43.17,52.44l-89.81,1.58Z"/>
    <path class="cls-5" d="m190.42,171.55l35-7.54,41.14-21.63.15-29.53c-6.17-1.7-18,2.58-39.25,13.41l-31.59,16.31c-9.18,4.73-12.79,16.01-8.06,25.19.71,1.37,1.58,2.65,2.61,3.81v-.02Z"/>
    <path class="cls-12" d="m269.18,228.71c-.51-1.66-.16-2.73,2.26-1.91,5.34,1.79,10.11,1.2,11.27.17s.1-3-1.64-2.85c-1.9,0-3.79-.27-5.62-.78-1.49-.35-2.9-.95-4.19-1.77-1.12-.71-2.08-1.38-2.93-2,0,0-4.93-3.56-6.47-6.42l-16.89,7.23,2.72,8.46c.66,3.01,2.81,5.48,5.71,6.54,4.83,1.57,12.51,1,12.51,1,1.41-.92,6.84,6.94,8.49,9.71s3.6,3.12,4.24,1.43c.43-1.16-4.4-9.77-6.08-12.48-1.36-1.99-2.49-4.12-3.38-6.35"/>
    <path class="cls-9" d="m257.74,236.38c0,.06-.42,0-1-.24-.75-.38-1.37-.98-1.77-1.72-.41-.73-.6-1.57-.55-2.41.06-.64.26-1,.32-1-.15,2.22,1.03,4.32,3,5.34v.03Z"/>
    <path class="cls-9" d="m263.1,236.63c0,.06-.4,0-.94-.27-.7-.39-1.27-.98-1.65-1.69-.39-.71-.57-1.51-.52-2.31.06-.61.23-1,.3-.93.03,1.04.27,2.05.69,3,.56.86,1.28,1.61,2.12,2.2Z"/>
    <path class="cls-5" d="m189.42,170.38s53.62,61.62,53.55,60.6,24-19,24-19l-52.53-62.6-25.02,21Z"/>
    <path class="cls-11" d="m221.94,158.3s.14.11.38.36l1,1.12,3.6,4.16c3,3.52,7.17,8.42,11.73,13.85s8.67,10.37,11.62,14l3.47,4.27.93,1.18c.2.27.31.42.29.43-.14-.1-.26-.22-.37-.36l-1-1.12c-.91-1-2.12-2.45-3.6-4.16-3-3.52-7.18-8.42-11.74-13.85s-8.66-10.37-11.62-14l-3.47-4.27c-.37-.47-.68-.86-.92-1.18-.12-.13-.22-.28-.3-.43Z"/>
    <path class="cls-11" d="m316.79,165.38c.36-1.31.58-2.65.64-4,.07-3.24-1.2-6.36-3.5-8.64-1.3-1.37-2.7-2.55-3.83-3.79-1.03-1.08-1.85-2.35-2.4-3.74-.38-.95-.53-1.98-.44-3,.02-.37.12-.74.28-1.07-.18,1.32,0,2.67.51,3.9.59,1.32,1.4,2.52,2.41,3.55,1.12,1.19,2.52,2.35,3.85,3.75,1.3,1.3,2.29,2.88,2.89,4.62.48,1.42.69,2.91.61,4.4-.05,1-.24,1.99-.57,2.94-.09.38-.24.75-.45,1.08Z"/>
    <path class="cls-11" d="m244.47,117.98s.27-.14.78-.37,1.3-.52,2.32-.84c1.25-.39,2.54-.65,3.84-.78,1.74-.19,3.5-.03,5.18.48,2.03.65,3.86,1.82,5.29,3.4,1.63,1.85,2.74,4.09,3.22,6.51.6,2.62.78,5.32.51,8-.32,2.87-1.35,5.62-3,8-1.74,2.3-3.92,4.23-6.41,5.69-2.35,1.48-4.71,2.68-6.95,3.86l-11.91,6.26-8,4.17-2.2,1.11c-.25.14-.52.26-.79.35.24-.17.48-.32.74-.45l2.15-1.2,8-4.32,11.84-6.35c2.23-1.19,4.6-2.41,6.91-3.88,2.43-1.43,4.55-3.31,6.26-5.55,1.6-2.32,2.59-4.99,2.88-7.79.26-2.61.1-5.24-.47-7.8-.44-2.32-1.47-4.49-3-6.29-1.37-1.54-3.12-2.7-5.08-3.34-1.61-.51-3.31-.69-5-.55-1.29.11-2.56.34-3.81.69-1,.29-1.81.55-2.34.74-.31.12-.63.21-.96.25Z"/>
    <path class="cls-11" d="m227.84,163.95c-.18.05-.62-3.54-3-7.15s-5.42-5.51-5.3-5.65c.73.29,1.41.7,2,1.22,2.97,2.35,5.08,5.61,6,9.28.23.74.33,1.52.3,2.3Z"/>
    <path class="cls-3" d="m306.64,157.25c-.37.14-.75.24-1.14.31-1.11.21-2.25.27-3.38.15-1.79-.19-3.53-.76-5.08-1.67-2.07-1.23-3.71-3.07-4.69-5.27-1.21-2.67-1.44-5.69-.65-8.51.45-1.6,1.45-2.99,2.83-3.92.75-.5,1.67-.69,2.56-.53.9.21,1.68.73,2.22,1.48,2,3.19,2.44,7.12,1.2,10.67-.6,1.88-1.62,3.59-3,5-1.44,1.44-3.24,2.48-5.21,3-3.95,1.09-8.17.08-11.2-2.68-2.69-2.65-3.94-6.43-3.35-10.16.25-1.71.94-3.33,2-4.7.53-.67,1.22-1.2,2-1.53.79-.33,1.67-.33,2.46,0,1.44.68,2.43,2.06,2.61,3.64.11,1.41-.17,2.82-.81,4.08-1.06,2.14-2.51,4.06-4.26,5.68-1.31,1.22-2.78,2.26-4.37,3.09-1,.53-2.04.97-3.12,1.31-.36.12-.65.18-.84.23-.1.03-.2.05-.3.06.09-.05.18-.09.28-.11.19-.07.47-.15.83-.29,1.05-.38,2.07-.84,3.05-1.38,1.55-.86,2.99-1.91,4.27-3.13,1.7-1.61,3.1-3.51,4.12-5.61.59-1.2.85-2.54.74-3.88-.17-1.43-1.07-2.67-2.37-3.28-.68-.28-1.44-.28-2.12,0-.71.31-1.33.79-1.8,1.4-1.02,1.31-1.68,2.85-1.92,4.49-.55,3.56.65,7.17,3.22,9.7,2.9,2.6,6.93,3.54,10.68,2.49,1.89-.47,3.61-1.44,5-2.8,1.33-1.34,2.32-2.96,2.91-4.75.57-1.73.77-3.56.59-5.37-.08-.88-.26-1.74-.55-2.57-.24-.82-.62-1.58-1.12-2.27-.47-.66-1.16-1.12-1.94-1.31-.77-.14-1.56.02-2.21.46-1.29.85-2.25,2.13-2.68,3.61-.79,2.72-.59,5.64.56,8.23.93,2.15,2.51,3.95,4.51,5.17,1.51.92,3.2,1.51,4.95,1.72,1.51.17,3.04.08,4.52-.25Z"/>
    <path class="cls-9" d="m310.68,97.25c-1.14-1.39-1.95-3.01-2.39-4.75-.18-.56-.2-1.16-.06-1.73.15-.59.68-1,1.29-1,.6,0,1,.61,1.33,1.12.98,1.47,1.8,3.04,2.46,4.68.19.45.29.93.29,1.42,0,.5-.27.95-.69,1.21-.5.22-1.08.14-1.51-.2-.4-.34-.74-.75-1-1.21"/>
    <path class="cls-9" d="m313.25,96.14l-2.64-5.54c-.3-.53-.49-1.12-.55-1.72-.05-.62.29-1.21.85-1.48.52-.15,1.08,0,1.46.38.38.37.68.81.89,1.3l1.25,2.43c.37.64.65,1.34.82,2.06.17.74.02,1.51-.41,2.13-.47.61-1.31.81-2,.47"/>
    <path class="cls-12" d="m301.5,113.27s-3.68-4.77-4-7.28,2.75-7,9.36-8c2.41-.25,4.74-1.05,6.8-2.32.84-.57,1.16-1.65.77-2.58-.87-2.11-2.43-6-2.31-6.55.31-1.35,1.19-1.32,3.47,2,2.28,3.32,4.93,6.74,4.42,8.28s-8.57,6.31-8.57,6.31l2.2,3.55-12.14,6.59Z"/>
    <path class="cls-5" d="m323.36,162.31l-25.37-49.71,16.34-9.15,34.32,54.4s1.81,3.48,4.34,7.55h-28.77"/>
    <path class="cls-11" d="m314.1,103.45s-.09.08-.28.2l-.86.52-3.28,1.91-11.8,6.72.09-.3c2.47,5,5.68,10.85,8.91,17.18,4.81,9.35,9,17.92,11.9,24.16,1.46,3.12,2.62,5.66,3.41,7.41.37.85.67,1.52.89,2,.12.23.21.47.28.72-.15-.21-.28-.44-.38-.68-.24-.5-.57-1.16-1-2l-3.56-7.34c-3-6.19-7.22-14.73-12-24.08-3.23-6.32-6.42-12.15-8.85-17.21l-.09-.2.19-.11,11.89-6.55,3.35-1.81.89-.46c.1-.04.2-.07.3-.08Z"/>
    <path class="cls-11" d="m246.8,166.73c-2.19-3.56-3.63-7.54-4.23-11.68.16,0,.85,2.66,2,5.87s2.37,5.74,2.23,5.81Z"/>
    <path class="cls-11" d="m302.68,93.45c5.12,2.08,10.95-.39,13.03-5.51,1.3-3.21.85-6.87-1.2-9.66,5.73-1.45,9.3-8.06,8.14-13.86s-6.33-10.32-12.11-11.57c-2.21-.53-4.52-.47-6.7.17-2.19.67-4,2.23-5,4.29"/>
    <path class="cls-8" d="m301.87,80.49c0,.06-.74.2-1.95.83-1.7.91-3.05,2.36-3.83,4.12-1.16,2.62-.92,5.65.64,8.06.44.68.98,1.3,1.6,1.82.64.55,1.36,1,2.14,1.33,3.37,1.46,7.29.56,9.69-2.21.56-.64,1.01-1.35,1.35-2.13.33-.74.55-1.53.65-2.33.58-4.69-2.76-8.96-7.45-9.54-.24-.03-.47-.05-.71-.06-1.37-.05-2.12.17-2.13.1.17-.07.35-.12.54-.15.52-.11,1.06-.17,1.59-.16,3.46,0,6.6,2.05,8,5.22.65,1.46.88,3.06.69,4.64-.09.85-.31,1.69-.67,2.47-.35.83-.83,1.6-1.42,2.27-2.54,2.96-6.72,3.91-10.29,2.35-.82-.35-1.59-.84-2.26-1.43-.66-.55-1.22-1.2-1.68-1.93-.85-1.34-1.33-2.89-1.39-4.48-.11-3.44,1.8-6.63,4.89-8.15.48-.24.99-.43,1.51-.55.16-.05.32-.08.49-.09Z"/>
    <path class="cls-11" d="m306.21,64.73c5.42-.31,9.56-4.95,9.26-10.37-.18-3.2-1.91-6.11-4.64-7.8,2.27-6.35-1.05-13.34-7.4-15.6-3.62-1.29-7.63-.8-10.83,1.31-4.39-7.79-14.28-10.55-22.07-6.15-4.11,2.32-7.01,6.32-7.93,10.95-7.99-3.3-17.15.5-20.45,8.49-1.7,4.11-1.57,8.75.35,12.76-6.68.57-11.63,6.44-11.06,13.12.57,6.68,6.44,11.63,13.12,11.06-1.73,5.65,1.45,11.63,7.1,13.36,3.09.95,6.44.45,9.12-1.36,3.41,5.5,10.64,7.19,16.14,3.78,2.31-1.43,4.05-3.63,4.92-6.2"/>
    <path class="cls-12" d="m294.17,111.65c.21-4.87.47-9.28.47-9.28,0,0,10.89-1.37,11.36-12.48s-.64-36.69-.64-36.69l-20-9.62-21.56,17.36,3.38,51c.49,7.35,6.77,12.96,14.13,12.62h0c6.98-.33,12.55-5.93,12.86-12.91Z"/>
    <path class="cls-11" d="m304.83,72.22c-.18.19-1.22-.68-2.71-.74s-2.6.7-2.75.5.1-.43.58-.79c.65-.45,1.42-.67,2.21-.63.79.03,1.54.32,2.15.83.45.4.6.75.52.83Z"/>
    <path class="cls-11" d="m288.31,72.22c-.18.19-1.21-.68-2.71-.74s-2.59.7-2.75.5.1-.43.58-.79c.65-.45,1.42-.67,2.21-.63.79.03,1.54.32,2.15.83.45.4.6.75.52.83Z"/>
    <path class="cls-11" d="m293.91,83.43c.79-.24,1.61-.36,2.43-.37.38,0,.74-.1.81-.37.04-.42-.04-.84-.23-1.22-.35-1-.71-2.05-1.08-3.15-1.5-4.49-2.57-8.17-2.4-8.23s1.51,3.53,3,8l1,3.17c.23.51.28,1.07.17,1.61-.12.28-.35.49-.64.57-.21.05-.42.08-.64.07-.81.08-1.62.05-2.42-.08Z"/>
    <path class="cls-9" d="m294.64,102.38c-5.16-.14-10.17-1.78-14.41-4.72,0,0,3.39,8.09,14.22,7.45l.19-2.73Z"/>
    <path class="cls-11" d="m279.18,44.2c-3.56,5.13-3.48,11.95.2,17,1.62,2.12,4.06,3.85,6.73,3.75s5.25-2.62,4.68-5.23c-.92,2.91.69,6.01,3.59,6.93s6.01-.69,6.93-3.59c.32-1.02.34-2.12.06-3.15.21,1.2.63,2.35,1.25,3.4.65,1.07,1.83,1.69,3.07,1.62,1.67-.22,2.64-2,3-3.67,1.05-5.05-.55-10.29-4.25-13.88-3.74-3.5-8.77-5.27-13.88-4.87-5.08.45-9.87,2.56-13.63,6"/>
    <path class="cls-11" d="m280.59,48.12c1.41,3.15,2.17,6.55,2.24,10,.06,3.47-1.23,6.83-3.6,9.36-2.45,2.52-6.13,3.4-9.45,2.27.89,3.01.38,6.27-1.38,8.87-1.86,2.47-5.52,3.65-8.23,2.16-2.46-1.34-3.52-4.32-3.86-7.1-1.51-12.47,7.37-23.8,19.84-25.31,1.62-.2,3.26-.22,4.89-.06"/>
    <path class="cls-12" d="m266.85,74.59c-1.48-.92-3.5-.17-4.68,1.12-2.38,2.61-2.19,6.65.42,9.03,1.6,1.46,3.84,2.01,5.94,1.45"/>
    <path class="cls-9" d="m266.51,82.86c0,.06-.49.13-1.26-.08-1.03-.27-1.88-1.01-2.28-2-.2-.58-.18-1.21.06-1.78.2-.44.52-.82.92-1.09.69-.45,1.21-.44,1.22-.38s-.45.21-1,.68c-.72.57-1,1.53-.71,2.4.35.85,1.04,1.52,1.91,1.85.73.25,1.15.32,1.14.4Z"/>
    <path class="cls-11" d="m289.23,67.59c-.14.43-1.77.27-3.7.36s-3.54.33-3.71-.09,1.4-1.43,3.65-1.51,3.91.83,3.76,1.24Z"/>
    <path class="cls-11" d="m304.79,67.28c-.17.15-.5,0-.89-.05-.45-.11-.91-.13-1.36-.08-.58,0-1.22.16-1.71.15s-.83-.11-.89-.33.16-.48.57-.76c.57-.36,1.22-.59,1.89-.66.8-.1,1.6.18,2.15.76.37.45.4.83.24.97Z"/>
    <path class="cls-9" d="m291.32,86.27c.83-.54,1.86-.69,2.81-.4.96.33,1.54,1.3,1.39,2.3-.14.52-.46.98-.9,1.28-.66.51-1.5.71-2.31.56-.82-.16-1.49-.77-1.73-1.57-.2-.82.17-1.67.91-2.08"/>
    <path class="cls-11" d="m296.78,87.46s-.36.31-1.07.46c-.95.2-1.93.1-2.82-.27-.89-.38-1.65-1.01-2.18-1.81-.4-.61-.48-1.06-.42-1.09s.28.35.72.87c.57.66,1.28,1.19,2.08,1.54.81.33,1.69.46,2.56.39.68-.05,1.1-.17,1.13-.09Z"/>
    <path class="cls-8" d="m274.23,92.76c-.07,0,0-.78-.38-2.1-.5-1.86-1.62-3.49-3.16-4.64-1.05-.79-2.27-1.33-3.57-1.56-1.48-.26-3.01-.13-4.43.38-.76.28-1.48.67-2.13,1.16-.68.5-1.28,1.1-1.77,1.79-2.17,2.95-2.17,6.98,0,9.93.49.69,1.09,1.29,1.77,1.79.65.49,1.37.88,2.13,1.16,4.43,1.61,9.33-.68,10.94-5.12.08-.23.16-.46.22-.7.35-1.32.31-2.1.38-2.09.02.18.02.37,0,.55,0,.54-.06,1.07-.19,1.59-.45,1.94-1.56,3.67-3.14,4.89-1.09.85-2.36,1.43-3.72,1.7-1.56.3-3.18.18-4.68-.36-.81-.29-1.57-.69-2.26-1.21-.73-.52-1.37-1.16-1.89-1.89-2.33-3.13-2.33-7.42,0-10.55.52-.73,1.16-1.37,1.89-1.89.69-.52,1.45-.92,2.26-1.21,2.84-1.03,6.02-.52,8.4,1.34,1.58,1.22,2.69,2.95,3.14,4.89.13.52.19,1.05.19,1.59.02.19.02.37,0,.56Z"/>
    <path class="cls-5" d="m304.78,43.04c.1,0,.19.03.28.07.26.1.5.26.7.45.77.76,1.1,1.86.89,2.92-.43,1.62-1.8,2.83-3.46,3.06-2.06.25-4.14-.25-5.86-1.4l-2.06-1.19,2.26.74c.79.28,1.38.94,1.57,1.76.22.81.1,1.67-.32,2.39-.46.72-1.17,1.23-2,1.44-.83.21-1.71.19-2.53-.06-1.84-.72-3.38-2.04-4.36-3.76l-1.52-2.08,1.84,1.79c.97,1,1.35,2.43,1,3.78-.27,1.23-1.09,2.26-2.22,2.81-1.87.89-4.09.62-5.69-.69-1.04-.84-1.8-1.97-2.2-3.25-.1-.33-.19-.66-.24-1-.01-.12-.01-.24,0-.36.05,0,.11.48.43,1.31.44,1.18,1.2,2.22,2.19,3,1.52,1.17,3.56,1.38,5.29.55,1-.5,1.72-1.43,1.95-2.52.3-1.18-.03-2.42-.87-3.3l.39-.33c.92,1.61,2.35,2.85,4.07,3.54,1.44.53,3.06.07,4-1.14.72-1.18.29-3-.93-3.41l.2-.45c1.62,1.11,3.57,1.62,5.52,1.43,1.54-.18,2.83-1.27,3.26-2.76.21-.98-.05-2-.71-2.75-.26-.24-.55-.43-.87-.59Z"/>
    <path class="cls-5" d="m278.1,60.91s0,.07-.13.19c-.14.18-.3.35-.47.5-.65.59-1.41,1.04-2.23,1.33-1.29.45-2.69.47-4,.06-1.75-.55-3.19-1.79-4-3.43l.42-.06c-.56,3.53-3.88,5.93-7.41,5.37-3.53-.56-5.93-3.88-5.37-7.41.22-1.39.89-2.66,1.9-3.63l.35.37c-1.18.98-2.67,1.52-4.2,1.53-1.39.03-2.76-.35-3.95-1.08-1.06-.66-1.89-1.63-2.37-2.78-.39-.98-.56-2.04-.49-3.09.08-1.5.66-2.92,1.64-4.06.34-.41.76-.74,1.22-1,0,0-.45.34-1.08,1.13-.89,1.15-1.41,2.55-1.46,4-.04,1,.14,2,.53,2.92.47,1.06,1.25,1.95,2.24,2.55,1.11.68,2.4,1.03,3.71,1,1.42-.02,2.79-.52,3.88-1.42l.34.37c-1.74,1.78-2.24,4.44-1.27,6.73,1.19,2.52,3.94,3.91,6.68,3.39,2.38-.56,4.21-2.47,4.68-4.87l.11-.7.31.64c.74,1.54,2.06,2.73,3.68,3.28,1.25.42,2.6.42,3.85,0,.81-.25,1.56-.65,2.22-1.18.48-.42.67-.66.67-.64Z"/>
    <path class="cls-5" d="m258.31,78.69c-.25.23-.55.41-.87.52-.88.36-1.83.51-2.77.43-1.46-.11-2.83-.77-3.81-1.86-1.26-1.39-1.81-3.28-1.51-5.13l.46.2c-.99,1.31-2.27,2.36-3.75,3.07-1.14.54-2.39.8-3.65.77-1.17-.03-2.32-.35-3.35-.92-1.8-.93-3-2.71-3.19-4.73-.12-1.33.24-2.66,1-3.75.22-.28.47-.54.75-.76.09-.09.2-.15.32-.2,0,0-.39.34-.9,1.08-.67,1.07-.96,2.34-.82,3.6.21,1.89,1.37,3.54,3.08,4.37,2.04,1.08,4.47,1.11,6.53.09,1.4-.67,2.62-1.66,3.57-2.89l.65-.84-.19,1c-.29,1.7.2,3.44,1.33,4.74.9,1.03,2.16,1.69,3.52,1.84.9.11,1.81.01,2.67-.27.6-.21.91-.39.93-.36Z"/>
    <path class="cls-5" d="m314.94,57.03c.24.58.32,1.22.22,1.85-.24,3.17-2.69,5.73-5.85,6.11-.62.13-1.26.08-1.85-.14,0-.09.71,0,1.79-.23,2.89-.55,5.12-2.87,5.53-5.79.18-1.09.07-1.79.16-1.8Z"/>
    <path class="cls-5" d="m321.1,67.5c.14.23.22.49.25.76.12.74.05,1.49-.21,2.19-.37,1.11-1.29,1.95-2.42,2.23-.67.14-1.37.07-2-.18-.72-.27-1.3-.83-1.59-1.54l.5-.17c.09.33.14.66.13,1-.06,1.58-1.04,2.97-2.51,3.56-.64.24-1.34.27-2,.09-.56-.16-1.07-.44-1.5-.83-.63-.54-1.06-1.28-1.21-2.1-.09-.57,0-.89,0-.88s0,.31.17.84c.22.73.65,1.37,1.25,1.85.85.73,2.03.95,3.08.57,1.26-.53,2.1-1.74,2.15-3.11,0-.28-.03-.55-.11-.82l.51-.17c.55,1.11,1.79,1.7,3,1.44,1-.23,1.81-.94,2.18-1.89.27-.63.38-1.32.35-2-.02-.56-.11-.83-.02-.84Z"/>
    <path class="cls-11" d="m290.56,82.38c.07,0,.11.23,0,.57-.28.9-1.07,1.54-2,1.64-.35,0-.56-.06-.55-.13s.77-.22,1.45-.81.95-1.27,1.1-1.27Z"/>
  </g>
  <g id="freepik--Floor--inject-2">
    <path class="cls-11" d="m576.28,423.2c0,.15-129,.26-288.12.26s-288.16-.08-288.16-.26,129-.26,288.16-.26,288.12.12,288.12.26Z"/>
  </g>
  <g id="freepik--Plant--inject-2">
    <path class="cls-8" d="m55.61,369.17c-2.5,3.56-7.35,2.38-9.6.21s-3.2-5.33-4.07-8.34c-2-6.87-4-14.08-2.5-21.08.36-2.12,1.29-4.1,2.7-5.73,1.44-1.64,3.65-2.37,5.79-1.93,2.45.64,4,3,5.07,5.32,3.25,6.73,4.95,14.09,5,21.56,0,3.48-.4,7.12-2.36,10"/>
    <g class="cls-10">
      <path d="m55.61,369.17c-2.5,3.56-7.35,2.38-9.6.21s-3.2-5.33-4.07-8.34c-2-6.87-4-14.08-2.5-21.08.36-2.12,1.29-4.1,2.7-5.73,1.44-1.64,3.65-2.37,5.79-1.93,2.45.64,4,3,5.07,5.32,3.25,6.73,4.95,14.09,5,21.56,0,3.48-.4,7.12-2.36,10"/>
    </g>
    <path class="cls-8" d="m46.26,387.23c-4.19-1.98-8.91-2.55-13.46-1.64-2.43.41-5,1.14-6.63,3s-2,5.05-.07,6.62c1.23.83,2.71,1.21,4.18,1.06,3.55,0,7.49-.66,10.32,1.47,1.62,1.22,2.7,3.25,4.63,3.85,1.98.44,4.01-.47,5-2.24.92-1.78,1.13-3.84.57-5.77-.44-2.71-2.12-5.06-4.54-6.35Z"/>
    <path class="cls-8" d="m62.47,374.28c-2.72-3.21-3.23-7.9-2-11.93,1.37-4.01,3.81-7.56,7.07-10.26,3.69-3.29,7.99-5.83,12.66-7.47,1.8-.75,3.75-1.09,5.7-1,1.97.12,3.75,1.2,4.77,2.89,1.34,2.54.06,5.62-1.32,8.14-2.44,4.46-5.23,8.71-8.34,12.73-2.49,3.22-5.35,6.39-9.15,7.84s-7.74,1.28-9.76-1.35"/>
    <path class="cls-11" d="m55.8,422.95c-.13-.53-.21-1.07-.23-1.62-.11-1.17-.26-2.66-.43-4.42-.22-2.18-.56-4.34-1-6.48-.58-2.61-1.37-5.17-2.36-7.66-.97-2.48-2.28-4.81-3.91-6.92-1.32-1.72-3.01-3.12-4.94-4.11-1.31-.65-2.71-1.09-4.16-1.3-.54-.02-1.08-.1-1.61-.23.54-.07,1.1-.07,1.64,0,1.5.12,2.97.5,4.34,1.13,2.03.97,3.81,2.39,5.21,4.15,1.69,2.14,3.05,4.52,4.05,7.06,1,2.52,1.79,5.12,2.34,7.78.42,2.17.71,4.36.86,6.57.14,1.88.2,3.4.22,4.45.05.53.04,1.07-.02,1.6Z"/>
    <path class="cls-11" d="m55.47,419.55c-.02-.25-.02-.5,0-.75v-2.15c0-1.86,0-4.56-.1-7.9-.16-6.67-.74-15.87-1.85-26s-2.6-19.22-3.94-25.75c-.32-1.64-.64-3.11-1-4.4s-.53-2.41-.77-3.31-.37-1.54-.5-2.09c-.08-.24-.12-.49-.13-.75.11.23.2.47.26.71l.62,2.06c.28.89.56,2,.89,3.29s.69,2.75,1,4.39c1.84,8.51,3.23,17.12,4.15,25.78,1.11,10.14,1.61,19.37,1.65,26.05,0,3.34,0,6.05-.11,7.92-.06.87-.1,1.58-.14,2.15.03.25.02.5-.03.75Z"/>
    <path class="cls-11" d="m55.43,401.75c-.06-.75-.06-1.5,0-2.25.09-1.44.29-3.53.69-6.08.5-2.99,1.17-5.95,2-8.87.98-3.58,2.21-7.08,3.68-10.49,2.57-6.26,6.26-12,10.88-16.95.81-.85,1.66-1.64,2.57-2.38.39-.33.74-.66,1.09-.92l1-.69c.6-.45,1.23-.86,1.89-1.21-2.17,1.72-4.24,3.57-6.19,5.53-4.48,5-8.07,10.73-10.61,16.94-1.47,3.38-2.72,6.85-3.73,10.39-1,3.26-1.61,6.26-2.1,8.78s-.73,4.59-.9,6c-.03.74-.12,1.48-.27,2.2Z"/>
  </g>
  <g id="freepik--speech-bubble--inject-2">
    <path class="cls-11" d="m177.5,0c-.23.04-.47.07-.7.09l-2,.17c-1.1.07-2.2.23-3.28.47-.65.14-1.36.2-2.08.42s-1.5.44-2.31.67c-3.94,1.27-7.66,3.16-11,5.61-4.39,3.28-8.05,7.44-10.73,12.22-4.11,7.41-5.89,15.9-5.09,24.34.06.92.26,1.83.39,2.76.12.93.31,1.86.56,2.77.88,3.81,2.33,7.48,4.3,10.86,4.19,7.32,10.66,13.07,18.43,16.37,4.09,1.71,8.47,2.64,12.9,2.75,4.57.18,9.12-.54,13.41-2.12l1.31-.5.17-.06.16.07,19,9.38-.55.49-6.06-18.09-.07-.23.16-.17c4.54-4.67,7.88-10.36,9.73-16.6,1.67-5.7,2.09-11.69,1.24-17.57-1.36-9.8-6.26-18.76-13.78-25.18-2.85-2.33-5.99-4.29-9.35-5.8-2.54-1.06-5.17-1.86-7.87-2.38l-2.94-.46-2.17-.13-1.33-.09c-.15,0-.3-.02-.45-.05.15-.02.3-.02.45,0h1.33l2.19.06,3,.41c2.74.48,5.42,1.25,8,2.29,3.42,1.49,6.62,3.43,9.51,5.78,3.51,2.95,6.5,6.47,8.83,10.42,2.72,4.61,4.52,9.7,5.29,15,.89,5.97.48,12.07-1.2,17.87-1.87,6.36-5.25,12.18-9.87,16.94l.07-.4c2,5.8,4,11.85,6.08,18.08l.31.91-.86-.42-19-9.37h.33l-1.34.51c-4.38,1.61-9.04,2.33-13.71,2.13-4.53-.11-9-1.06-13.18-2.81-7.92-3.38-14.51-9.26-18.77-16.74-2-3.43-3.47-7.14-4.37-11-.25-.93-.44-1.87-.55-2.82-.13-.94-.34-1.86-.39-2.8-.17-1.83-.22-3.68-.14-5.52.1-3.49.64-6.95,1.59-10.31.91-3.08,2.18-6.05,3.78-8.84,2.76-4.83,6.51-9.03,11-12.31,3.39-2.45,7.15-4.32,11.15-5.54l2.35-.64c.69-.16,1.39-.29,2.09-.38,1.09-.22,2.2-.36,3.31-.4l2.05-.1h.67Z"/>
    <path class="cls-8" d="m186.44,34.88h-2.77l-6.14-8.35-.06-5.53s-4.28-.21-3.7,7,0,5.39,0,5.39c0,0-9.08.14-9.83.94-.54.58-.69,9.61-.72,14.5-.11,2.47,1.5,4.69,3.88,5.35.33.08.66.12,1,.12,2.27,0,13.82-2,13.82-2l4.79-.06-.27-17.36Z"/>
    <polygon class="cls-8" points="194.35 33.27 192.86 52.22 188.12 52.28 187.91 33.73 194.35 33.27"/>
  </g>
</svg>